<?xml version="1.0" encoding="utf-8"?>
<!-- Generator: Adobe Illustrator 21.1.0, SVG Export Plug-In . SVG Version: 6.00 Build 0)  -->
<svg version="1.1" xmlns="http://www.w3.org/2000/svg" xmlns:xlink="http://www.w3.org/1999/xlink" x="0px" y="0px" width="475px"
	 height="330px" viewBox="170 2296.6 475 330" enable-background="new 170 2296.6 475 330" xml:space="preserve">
<g id="society">
	<g id="island-names_4_">
	</g>
	<g id="bora-bora">
		<g>
			<g>
				<g>
					<path fill="#279989" d="M545.2,2609.2h-2.9v-2h8.1v2h-2.9v8.5h-2.4V2609.2z"/>
					<path fill="#279989" d="M555.4,2612.5c0-0.7-0.4-1.2-1.2-1.2c-0.7,0-1.3,0.3-2.1,0.7l-0.8-1.6c1-0.6,2.1-1,3.4-1
						c2,0,3.2,1.2,3.2,3.6v4.5h-1.9l-0.2-0.8h0c-0.7,0.6-1.4,1-2.3,1c-1.4,0-2.4-1.1-2.4-2.4
						C550.9,2613.8,552.2,2612.9,555.4,2612.5z M554.1,2616c0.5,0,0.9-0.3,1.3-0.7v-1.4c-1.7,0.2-2.2,0.7-2.2,1.3
						C553.1,2615.8,553.5,2616,554.1,2616z"/>
					<path fill="#279989" d="M560.1,2606.4h2.4v2.8l-0.1,1.4c0.6-0.5,1.4-1.1,2.4-1.1c1.7,0,2.5,1.2,2.5,3.2v4.9h-2.4v-4.6
						c0-1.2-0.3-1.5-1-1.5c-0.6,0-1,0.3-1.5,0.8v5.4h-2.4V2606.4z"/>
					<path fill="#279989" d="M569.5,2607.3c0-0.7,0.6-1.2,1.4-1.2c0.8,0,1.4,0.5,1.4,1.2c0,0.7-0.6,1.2-1.4,1.2
						C570.1,2608.5,569.5,2608,569.5,2607.3z M569.7,2609.7h2.4v7.9h-2.4V2609.7z"/>
					<path fill="#279989" d="M574.8,2611.5h-1.1v-1.7l1.2-0.1l0.3-2.1h2v2.1h1.9v1.8h-1.9v3.2c0,0.9,0.4,1.3,1,1.3
						c0.3,0,0.5-0.1,0.8-0.2l0.4,1.7c-0.4,0.1-1,0.3-1.8,0.3c-2,0-2.7-1.2-2.7-3.1V2611.5z"/>
					<path fill="#279989" d="M580.8,2607.3c0-0.7,0.6-1.2,1.4-1.2c0.8,0,1.4,0.5,1.4,1.2c0,0.7-0.6,1.2-1.4,1.2
						C581.4,2608.5,580.8,2608,580.8,2607.3z M581,2609.7h2.4v7.9H581V2609.7z"/>
				</g>
			</g>
			<g>
				<g>
					<path fill="#279989" d="M431.2,2453.3h2.4v4h3.6v-4h2.4v10.4h-2.4v-4.4h-3.6v4.4h-2.4V2453.3z"/>
					<path fill="#279989" d="M442.1,2455.8h2.4v4.6c0,1.1,0.3,1.5,1,1.5c0.6,0,0.9-0.3,1.4-0.9v-5.2h2.4v7.9h-1.9l-0.2-1.1h0
						c-0.7,0.8-1.4,1.3-2.5,1.3c-1.7,0-2.5-1.2-2.5-3.2V2455.8z"/>
					<path fill="#279989" d="M455.9,2458.6c0-0.7-0.4-1.2-1.2-1.2c-0.7,0-1.3,0.3-2.1,0.7l-0.8-1.6c1-0.6,2.1-1,3.4-1
						c2,0,3.2,1.2,3.2,3.6v4.5h-1.9l-0.2-0.8h0c-0.7,0.6-1.4,1-2.3,1c-1.4,0-2.4-1.1-2.4-2.4
						C451.4,2459.9,452.7,2458.9,455.9,2458.6z M454.5,2462.1c0.5,0,0.9-0.3,1.3-0.7v-1.4c-1.7,0.2-2.2,0.7-2.2,1.3
						C453.6,2461.9,454,2462.1,454.5,2462.1z"/>
					<path fill="#279989" d="M460.6,2452.5h2.4v2.8l-0.1,1.4c0.6-0.5,1.4-1.1,2.4-1.1c1.7,0,2.5,1.2,2.5,3.2v4.9h-2.4v-4.6
						c0-1.2-0.3-1.5-1-1.5c-0.6,0-1,0.3-1.5,0.8v5.4h-2.4V2452.5z"/>
					<path fill="#279989" d="M470,2453.4c0-0.7,0.6-1.2,1.4-1.2c0.8,0,1.4,0.5,1.4,1.2c0,0.7-0.6,1.2-1.4,1.2
						C470.5,2454.6,470,2454.1,470,2453.4z M470.2,2455.8h2.4v7.9h-2.4V2455.8z"/>
					<path fill="#279989" d="M475,2455.8h1.9l0.2,1h0.1c0.7-0.6,1.5-1.2,2.5-1.2c1.7,0,2.5,1.2,2.5,3.2v4.9h-2.4v-4.6
						c0-1.2-0.3-1.5-1-1.5c-0.6,0-1,0.3-1.5,0.8v5.4H475V2455.8z"/>
					<path fill="#279989" d="M487.8,2455.6c2.3,0,3.4,1.6,3.4,3.8c0,0.4,0,0.8-0.1,1h-4.8c0.2,1.2,1,1.7,2.1,1.7
						c0.6,0,1.1-0.2,1.7-0.5l0.8,1.4c-0.8,0.6-1.9,0.9-2.8,0.9c-2.3,0-4-1.5-4-4.2C484.1,2457.2,485.9,2455.6,487.8,2455.6z
						 M489.2,2458.9c0-0.9-0.4-1.6-1.3-1.6c-0.7,0-1.4,0.5-1.5,1.6H489.2z"/>
				</g>
			</g>
			<g>
				<g>
					<path fill="#279989" d="M256.6,2491.2l-2-3.8h-1.3v3.8h-2.4v-10.4h3.8c2.2,0,4,0.8,4,3.2c0,1.5-0.8,2.5-1.9,3l2.4,4.2H256.6z
						 M253.3,2485.6h1.2c1.2,0,1.9-0.5,1.9-1.6s-0.7-1.4-1.9-1.4h-1.2V2485.6z"/>
					<path fill="#279989" d="M265,2486.1c0-0.7-0.4-1.2-1.2-1.2c-0.7,0-1.3,0.3-2.1,0.7l-0.8-1.6c1-0.6,2.1-1,3.4-1
						c2,0,3.2,1.2,3.2,3.6v4.5h-1.9l-0.2-0.8h0c-0.7,0.6-1.4,1-2.3,1c-1.4,0-2.4-1.1-2.4-2.4C260.6,2487.3,261.9,2486.4,265,2486.1z
						 M263.7,2489.6c0.5,0,0.9-0.3,1.3-0.7v-1.4c-1.7,0.2-2.2,0.7-2.2,1.3C262.8,2489.3,263.1,2489.6,263.7,2489.6z"/>
					<path fill="#279989" d="M269.6,2480.9c0-0.7,0.6-1.2,1.4-1.2c0.8,0,1.4,0.5,1.4,1.2c0,0.7-0.6,1.2-1.4,1.2
						C270.2,2482.1,269.6,2481.6,269.6,2480.9z M269.8,2483.3h2.4v7.9h-2.4V2483.3z"/>
					<path fill="#279989" d="M278.8,2486.1c0-0.7-0.4-1.2-1.2-1.2c-0.7,0-1.3,0.3-2.1,0.7l-0.8-1.6c1-0.6,2.1-1,3.4-1
						c2,0,3.2,1.2,3.2,3.6v4.5h-1.9l-0.2-0.8h0c-0.7,0.6-1.4,1-2.3,1c-1.4,0-2.4-1.1-2.4-2.4
						C274.3,2487.3,275.6,2486.4,278.8,2486.1z M277.5,2489.6c0.5,0,0.9-0.3,1.3-0.7v-1.4c-1.7,0.2-2.2,0.7-2.2,1.3
						C276.6,2489.3,276.9,2489.6,277.5,2489.6z"/>
					<path fill="#279989" d="M283.9,2485.1h-1.1v-1.7l1.2-0.1l0.3-2.1h2v2.1h1.9v1.8h-1.9v3.2c0,0.9,0.4,1.3,1,1.3
						c0.3,0,0.5-0.1,0.8-0.2l0.4,1.7c-0.4,0.1-1,0.3-1.8,0.3c-2,0-2.7-1.2-2.7-3.1V2485.1z"/>
					<path fill="#279989" d="M293.2,2483.1c2.3,0,3.4,1.6,3.4,3.8c0,0.4,0,0.8-0.1,1h-4.8c0.2,1.2,1,1.7,2.1,1.7
						c0.6,0,1.1-0.2,1.7-0.5l0.8,1.4c-0.8,0.6-1.9,0.9-2.8,0.9c-2.3,0-4-1.5-4-4.2C289.4,2484.7,291.3,2483.1,293.2,2483.1z
						 M294.6,2486.4c0-0.9-0.4-1.6-1.3-1.6c-0.7,0-1.4,0.5-1.5,1.6H294.6z"/>
					<path fill="#279989" d="M302.6,2486.1c0-0.7-0.4-1.2-1.2-1.2c-0.7,0-1.3,0.3-2.1,0.7l-0.8-1.6c1-0.6,2.1-1,3.4-1
						c2,0,3.2,1.2,3.2,3.6v4.5H303l-0.2-0.8h0c-0.7,0.6-1.4,1-2.3,1c-1.4,0-2.4-1.1-2.4-2.4C298.1,2487.3,299.5,2486.4,302.6,2486.1
						z M301.3,2489.6c0.5,0,0.9-0.3,1.3-0.7v-1.4c-1.7,0.2-2.2,0.7-2.2,1.3C300.4,2489.3,300.7,2489.6,301.3,2489.6z"/>
				</g>
			</g>
			<g>
				<g>
					<path fill="#279989" d="M347.2,2425.9h-2.9v-2h8.1v2h-2.9v8.5h-2.4V2425.9z"/>
					<path fill="#279989" d="M357.4,2429.2c0-0.7-0.4-1.2-1.2-1.2c-0.7,0-1.3,0.3-2.1,0.7l-0.8-1.6c1-0.6,2.1-1,3.4-1
						c2,0,3.2,1.2,3.2,3.6v4.5h-1.9l-0.2-0.8h0c-0.7,0.6-1.4,1-2.3,1c-1.4,0-2.4-1.1-2.4-2.4C353,2430.4,354.3,2429.5,357.4,2429.2z
						 M356.1,2432.7c0.5,0,0.9-0.3,1.3-0.7v-1.4c-1.7,0.2-2.2,0.7-2.2,1.3C355.2,2432.4,355.6,2432.7,356.1,2432.7z"/>
					<path fill="#279989" d="M362.2,2423.1h2.4v2.8l-0.1,1.4c0.6-0.5,1.4-1.1,2.4-1.1c1.7,0,2.5,1.2,2.5,3.2v4.9H367v-4.6
						c0-1.2-0.3-1.5-1-1.5c-0.6,0-1,0.3-1.5,0.8v5.4h-2.4V2423.1z"/>
					<path fill="#279989" d="M375.9,2429.2c0-0.7-0.4-1.2-1.2-1.2c-0.7,0-1.3,0.3-2.1,0.7l-0.8-1.6c1-0.6,2.1-1,3.4-1
						c2,0,3.2,1.2,3.2,3.6v4.5h-1.9l-0.2-0.8h0c-0.7,0.6-1.4,1-2.3,1c-1.4,0-2.4-1.1-2.4-2.4
						C371.5,2430.4,372.8,2429.5,375.9,2429.2z M374.6,2432.7c0.5,0,0.9-0.3,1.3-0.7v-1.4c-1.7,0.2-2.2,0.7-2.2,1.3
						C373.7,2432.4,374.1,2432.7,374.6,2432.7z"/>
					<path fill="#279989" d="M380.4,2427.7c1-0.5,1.4-1.1,1.4-2c0,0-0.1,0-0.1,0c-0.7,0-1.2-0.4-1.2-1.2c0-0.8,0.5-1.3,1.2-1.3
						c1,0,1.5,0.8,1.5,2.1c0,1.5-0.8,2.7-2.3,3.4L380.4,2427.7z"/>
					<path fill="#279989" d="M389,2429.2c0-0.7-0.4-1.2-1.2-1.2c-0.7,0-1.3,0.3-2.1,0.7l-0.8-1.6c1-0.6,2.1-1,3.4-1
						c2,0,3.2,1.2,3.2,3.6v4.5h-1.9l-0.2-0.8h0c-0.7,0.6-1.4,1-2.3,1c-1.4,0-2.4-1.1-2.4-2.4C384.6,2430.4,385.9,2429.5,389,2429.2z
						 M387.7,2432.7c0.5,0,0.9-0.3,1.3-0.7v-1.4c-1.7,0.2-2.2,0.7-2.2,1.3C386.8,2432.4,387.2,2432.7,387.7,2432.7z"/>
				</g>
			</g>
			<g>
				<g>
					<path fill="#004976" d="M221,2415.6h3.6c2.2,0,3.9,0.6,3.9,2.6c0,0.9-0.5,1.9-1.8,2.3v0.1c1.5,0.3,2.3,1.1,2.3,2.4
						c0,2.1-1.8,3.1-4.1,3.1H221V2415.6z M224.5,2419.9c1.2,0,1.7-0.5,1.7-1.3s-0.5-1.1-1.6-1.1h-1.1v2.4H224.5z M224.7,2424.3
						c1.3,0,2-0.5,2-1.4c0-0.9-0.7-1.3-2-1.3h-1.3v2.7H224.7z"/>
					<path fill="#004976" d="M234.3,2418c2,0,3.9,1.5,3.9,4.2c0,2.6-1.9,4.2-3.9,4.2c-2,0-3.9-1.5-3.9-4.2
						C230.4,2419.5,232.3,2418,234.3,2418z M234.3,2424.4c1,0,1.5-0.9,1.5-2.3c0-1.4-0.5-2.3-1.5-2.3c-1,0-1.5,0.9-1.5,2.3
						C232.8,2423.5,233.3,2424.4,234.3,2424.4z"/>
					<path fill="#004976" d="M240.2,2418.1h1.9l0.2,1.4h0.1c0.6-1.1,1.4-1.6,2.3-1.6c0.4,0,0.7,0.1,0.9,0.2l-0.4,2
						c-0.3-0.1-0.5-0.1-0.9-0.1c-0.6,0-1.3,0.4-1.7,1.5v4.6h-2.4V2418.1z"/>
					<path fill="#004976" d="M250.6,2421c0-0.7-0.4-1.2-1.2-1.2c-0.7,0-1.3,0.3-2.1,0.7l-0.8-1.6c1-0.6,2.1-1,3.4-1
						c2,0,3.2,1.2,3.2,3.6v4.5h-1.9l-0.2-0.8h0c-0.7,0.6-1.4,1-2.3,1c-1.4,0-2.4-1.1-2.4-2.4C246.2,2422.2,247.5,2421.3,250.6,2421z
						 M249.3,2424.5c0.5,0,0.9-0.3,1.3-0.7v-1.4c-1.7,0.2-2.2,0.7-2.2,1.3C248.4,2424.2,248.8,2424.5,249.3,2424.5z"/>
					<path fill="#004976" d="M259.3,2415.6h3.6c2.2,0,3.9,0.6,3.9,2.6c0,0.9-0.5,1.9-1.8,2.3v0.1c1.5,0.3,2.3,1.1,2.3,2.4
						c0,2.1-1.8,3.1-4.1,3.1h-3.9V2415.6z M262.8,2419.9c1.2,0,1.7-0.5,1.7-1.3s-0.5-1.1-1.6-1.1h-1.1v2.4H262.8z M263,2424.3
						c1.3,0,2-0.5,2-1.4c0-0.9-0.7-1.3-2-1.3h-1.3v2.7H263z"/>
					<path fill="#004976" d="M272.6,2418c2,0,3.9,1.5,3.9,4.2c0,2.6-1.9,4.2-3.9,4.2c-2,0-3.9-1.5-3.9-4.2
						C268.7,2419.5,270.6,2418,272.6,2418z M272.6,2424.4c1,0,1.5-0.9,1.5-2.3c0-1.4-0.5-2.3-1.5-2.3c-1,0-1.5,0.9-1.5,2.3
						C271.2,2423.5,271.6,2424.4,272.6,2424.4z"/>
					<path fill="#004976" d="M278.5,2418.1h1.9l0.2,1.4h0.1c0.6-1.1,1.4-1.6,2.3-1.6c0.4,0,0.7,0.1,0.9,0.2l-0.4,2
						c-0.3-0.1-0.5-0.1-0.9-0.1c-0.6,0-1.3,0.4-1.7,1.5v4.6h-2.4V2418.1z"/>
					<path fill="#004976" d="M289,2421c0-0.7-0.4-1.2-1.2-1.2c-0.7,0-1.3,0.3-2.1,0.7l-0.8-1.6c1-0.6,2.1-1,3.4-1
						c2,0,3.2,1.2,3.2,3.6v4.5h-1.9l-0.2-0.8h0c-0.7,0.6-1.4,1-2.3,1c-1.4,0-2.4-1.1-2.4-2.4C284.5,2422.2,285.8,2421.3,289,2421z
						 M287.7,2424.5c0.5,0,0.9-0.3,1.3-0.7v-1.4c-1.7,0.2-2.2,0.7-2.2,1.3C286.7,2424.2,287.1,2424.5,287.7,2424.5z"/>
				</g>
			</g>
			<g>
				<path fill="#279989" d="M173.5,2388.2h2.5l1.7,4.7l0.6,1.8h0.1l0.6-1.8l1.7-4.7h2.5v10.4h-2.2v-3.8c0-1,0.2-2.5,0.3-3.6h-0.1
					l-0.8,2.4l-1.6,4h-0.9l-1.6-4l-0.8-2.4h-0.1c0.1,1,0.3,2.5,0.3,3.6v3.8h-2.2V2388.2z"/>
				<path fill="#279989" d="M190.1,2393.6c0-0.7-0.4-1.2-1.2-1.2c-0.7,0-1.3,0.3-2.1,0.7l-0.8-1.6c1-0.6,2.1-1,3.4-1
					c2,0,3.2,1.2,3.2,3.6v4.5h-1.9l-0.2-0.8h0c-0.7,0.6-1.4,1-2.3,1c-1.4,0-2.4-1.1-2.4-2.4C185.7,2394.8,187,2393.9,190.1,2393.6z
					 M188.8,2397c0.5,0,0.9-0.3,1.3-0.7v-1.4c-1.7,0.2-2.2,0.7-2.2,1.3C187.9,2396.8,188.3,2397,188.8,2397z"/>
				<path fill="#279989" d="M194.8,2390.7h2.4v4.6c0,1.1,0.3,1.5,1,1.5c0.6,0,0.9-0.3,1.4-0.9v-5.2h2.4v7.9H200l-0.2-1.1h0
					c-0.7,0.8-1.4,1.3-2.5,1.3c-1.7,0-2.5-1.2-2.5-3.2V2390.7z"/>
				<path fill="#279989" d="M206.7,2399.3v2.3h-2.4v-10.9h1.9l0.2,0.8h0.1c0.6-0.6,1.4-1,2.3-1c1.9,0,3.1,1.6,3.1,4
					c0,2.7-1.6,4.3-3.3,4.3c-0.7,0-1.3-0.3-1.9-0.8L206.7,2399.3z M208,2396.9c0.8,0,1.5-0.7,1.5-2.3c0-1.4-0.4-2.1-1.4-2.1
					c-0.5,0-0.9,0.2-1.4,0.7v3.2C207.2,2396.8,207.6,2396.9,208,2396.9z"/>
				<path fill="#279989" d="M213.8,2388.3c0-0.7,0.6-1.2,1.4-1.2c0.8,0,1.4,0.5,1.4,1.2c0,0.7-0.6,1.2-1.4,1.2
					C214.3,2389.6,213.8,2389.1,213.8,2388.3z M213.9,2390.7h2.4v7.9h-2.4V2390.7z"/>
				<path fill="#279989" d="M219.1,2392.6H218v-1.7l1.2-0.1l0.3-2.1h2v2.1h1.9v1.8h-1.9v3.2c0,0.9,0.4,1.3,1,1.3
					c0.3,0,0.5-0.1,0.8-0.2l0.4,1.7c-0.4,0.1-1,0.3-1.8,0.3c-2,0-2.7-1.2-2.7-3.1V2392.6z"/>
				<path fill="#279989" d="M225.1,2388.3c0-0.7,0.6-1.2,1.4-1.2c0.8,0,1.4,0.5,1.4,1.2c0,0.7-0.6,1.2-1.4,1.2
					C225.7,2389.6,225.1,2389.1,225.1,2388.3z M225.3,2390.7h2.4v7.9h-2.4V2390.7z"/>
			</g>
			<g>
				<g>
					<path fill="#279989" d="M404,2528.9h2.5l1.7,4.7l0.6,1.8h0.1l0.6-1.8l1.7-4.7h2.5v10.4h-2.2v-3.8c0-1,0.2-2.5,0.3-3.6h-0.1
						l-0.8,2.4l-1.6,4h-0.9l-1.6-4l-0.8-2.4h-0.1c0.1,1,0.3,2.5,0.3,3.6v3.8H404V2528.9z"/>
					<path fill="#279989" d="M419.8,2531.2c2,0,3.9,1.5,3.9,4.2c0,2.6-1.9,4.2-3.9,4.2c-2,0-3.9-1.5-3.9-4.2
						C415.9,2532.7,417.8,2531.2,419.8,2531.2z M419.8,2537.6c1,0,1.5-0.9,1.5-2.3c0-1.4-0.5-2.3-1.5-2.3c-1,0-1.5,0.9-1.5,2.3
						C418.4,2536.7,418.8,2537.6,419.8,2537.6z"/>
					<path fill="#279989" d="M429.1,2531.2c2,0,3.9,1.5,3.9,4.2c0,2.6-1.9,4.2-3.9,4.2c-2,0-3.9-1.5-3.9-4.2
						C425.2,2532.7,427.1,2531.2,429.1,2531.2z M429.1,2537.6c1,0,1.5-0.9,1.5-2.3c0-1.4-0.5-2.3-1.5-2.3c-1,0-1.5,0.9-1.5,2.3
						C427.6,2536.7,428.1,2537.6,429.1,2537.6z"/>
					<path fill="#279989" d="M435,2531.4h1.9l0.2,1.4h0.1c0.6-1.1,1.4-1.6,2.3-1.6c0.4,0,0.7,0.1,0.9,0.2l-0.4,2
						c-0.3-0.1-0.5-0.1-0.9-0.1c-0.6,0-1.3,0.4-1.7,1.5v4.6H435V2531.4z"/>
					<path fill="#279989" d="M444.9,2531.2c2.3,0,3.4,1.6,3.4,3.8c0,0.4,0,0.8-0.1,1h-4.8c0.2,1.2,1,1.7,2.1,1.7
						c0.6,0,1.1-0.2,1.7-0.5l0.8,1.4c-0.8,0.6-1.9,0.9-2.8,0.9c-2.3,0-4-1.5-4-4.2C441.1,2532.8,443,2531.2,444.9,2531.2z
						 M446.2,2534.5c0-0.9-0.4-1.6-1.3-1.6c-0.7,0-1.4,0.5-1.5,1.6H446.2z"/>
					<path fill="#279989" d="M454.3,2534.2c0-0.7-0.4-1.2-1.2-1.2c-0.7,0-1.3,0.3-2.1,0.7l-0.8-1.6c1-0.6,2.1-1,3.4-1
						c2,0,3.2,1.2,3.2,3.6v4.5h-1.9l-0.2-0.8h0c-0.7,0.6-1.4,1-2.3,1c-1.4,0-2.4-1.1-2.4-2.4
						C449.8,2535.4,451.1,2534.5,454.3,2534.2z M453,2537.7c0.5,0,0.9-0.3,1.3-0.7v-1.4c-1.7,0.2-2.2,0.7-2.2,1.3
						C452,2537.4,452.4,2537.7,453,2537.7z"/>
				</g>
			</g>
			<g>
				<g>
					<path fill="#279989" d="M571.2,2414.2h-2.9v-2h8.1v2h-2.9v8.5h-2.4V2414.2z"/>
					<path fill="#279989" d="M580.3,2414.5c2.3,0,3.4,1.6,3.4,3.8c0,0.4,0,0.8-0.1,1h-4.8c0.2,1.2,1,1.7,2.1,1.7
						c0.6,0,1.1-0.2,1.7-0.5l0.8,1.4c-0.8,0.6-1.9,0.9-2.8,0.9c-2.3,0-4-1.5-4-4.2C576.5,2416.1,578.4,2414.5,580.3,2414.5z
						 M581.7,2417.9c0-0.9-0.4-1.6-1.3-1.6c-0.7,0-1.4,0.5-1.5,1.6H581.7z"/>
					<path fill="#279989" d="M585.7,2416.6h-1.1v-1.7l1.2-0.1l0.3-2.1h2v2.1h1.9v1.8h-1.9v3.2c0,0.9,0.4,1.3,1,1.3
						c0.3,0,0.5-0.1,0.8-0.2l0.4,1.7c-0.4,0.1-1,0.3-1.8,0.3c-2,0-2.7-1.2-2.7-3.1V2416.6z"/>
					<path fill="#279989" d="M591.7,2412.3c0-0.7,0.6-1.2,1.4-1.2c0.8,0,1.4,0.5,1.4,1.2c0,0.7-0.6,1.2-1.4,1.2
						C592.3,2413.6,591.7,2413.1,591.7,2412.3z M591.9,2414.7h2.4v7.9h-2.4V2414.7z"/>
					<path fill="#279989" d="M600.9,2417.6c0-0.7-0.4-1.2-1.2-1.2c-0.7,0-1.3,0.3-2.1,0.7l-0.8-1.6c1-0.6,2.1-1,3.4-1
						c2,0,3.2,1.2,3.2,3.6v4.5h-1.9l-0.2-0.8h0c-0.7,0.6-1.4,1-2.3,1c-1.4,0-2.4-1.1-2.4-2.4
						C596.5,2418.8,597.8,2417.9,600.9,2417.6z M599.6,2421c0.5,0,0.9-0.3,1.3-0.7v-1.4c-1.7,0.2-2.2,0.7-2.2,1.3
						C598.7,2420.8,599.1,2421,599.6,2421z"/>
					<path fill="#279989" d="M605.7,2414.7h1.9l0.2,1.4h0.1c0.6-1.1,1.4-1.6,2.3-1.6c0.4,0,0.7,0.1,0.9,0.2l-0.4,2
						c-0.3-0.1-0.5-0.1-0.9-0.1c-0.6,0-1.3,0.4-1.7,1.5v4.6h-2.4V2414.7z"/>
					<path fill="#279989" d="M615.7,2414.5c2,0,3.9,1.5,3.9,4.2c0,2.6-1.9,4.2-3.9,4.2c-2,0-3.9-1.5-3.9-4.2
						C611.8,2416.1,613.7,2414.5,615.7,2414.5z M615.7,2421c1,0,1.5-0.9,1.5-2.3c0-1.4-0.5-2.3-1.5-2.3c-1,0-1.5,0.9-1.5,2.3
						C614.3,2420.1,614.7,2421,615.7,2421z"/>
					<path fill="#279989" d="M625.6,2417.6c0-0.7-0.4-1.2-1.2-1.2c-0.7,0-1.3,0.3-2.1,0.7l-0.8-1.6c1-0.6,2.1-1,3.4-1
						c2,0,3.2,1.2,3.2,3.6v4.5H626l-0.2-0.8h0c-0.7,0.6-1.4,1-2.3,1c-1.4,0-2.4-1.1-2.4-2.4C621.1,2418.8,622.5,2417.9,625.6,2417.6
						z M624.3,2421c0.5,0,0.9-0.3,1.3-0.7v-1.4c-1.7,0.2-2.2,0.7-2.2,1.3C623.4,2420.8,623.7,2421,624.3,2421z"/>
				</g>
			</g>
		</g>
		<g id="bora-bora_6_">
			<polygon fill="#279989" points="264.2,2396.5 263.6,2397.4 263.6,2397.9 263.8,2398.1 263.6,2399 263.1,2400 263,2400.4 
				263.9,2401.8 263.8,2402.1 264.2,2402.8 264,2403.9 263.2,2404.7 263,2404.8 262.8,2405.1 262.2,2405.6 262.1,2405.8 
				262.4,2406.1 262.8,2406.1 263,2406.4 264,2406.4 264.2,2406.1 264.6,2406.1 265.2,2405.3 265.3,2404.6 265,2403.9 265.1,2403.2 
				264.2,2400.9 264.3,2400.2 264.1,2400 264.8,2394.6 265.3,2393.7 265.4,2393.2 264.4,2393.2 			"/>
			<polygon fill="#279989" points="266.5,2387.1 266,2386.4 265.2,2386.1 264.5,2385.7 263.8,2384.7 263.2,2384.5 262.9,2383.8 
				262.6,2383.9 262.5,2384.4 263.9,2386.6 264.3,2386.6 265.1,2387.3 265.5,2387.3 265.8,2387.8 266.2,2387.8 266.6,2388.2 
				267,2388.2 267.2,2388.6 267.2,2389 266.7,2389.5 265.9,2390.9 265.8,2391.6 265.2,2392.1 265.4,2392.7 266,2392.6 266.3,2392.3 
				267.6,2390.2 267.7,2389.7 267.9,2389.5 268.1,2388.3 267.6,2387.8 			"/>
			<polygon fill="#279989" points="260.7,2390 260.8,2389.5 261.1,2389.4 261.5,2388.8 260.7,2388 259.5,2387.8 259.3,2388 
				258,2388.2 257.6,2387.6 257.5,2386.9 257.2,2386.6 257,2386.6 256.6,2387.1 256.2,2387.1 255.9,2386.4 255.1,2386.1 
				254.8,2385.8 254.9,2385.1 255.7,2383.7 255.6,2383.3 254.3,2384 253.9,2384 253,2384.5 252.8,2385 252.3,2385.2 251.1,2385.4 
				250.5,2386 250.4,2386.5 250.9,2387.1 252.2,2387.8 252.6,2387.8 253.7,2388.5 254,2389.4 254.9,2389.7 255,2390.4 254.3,2390.8 
				253.6,2391.5 253.2,2391.5 252.1,2389.8 251.3,2389.9 250.7,2390.4 250.9,2390.9 250.8,2391.6 250.3,2392.3 250.2,2392.8 
				251,2393.6 252.2,2393.8 252.5,2394.2 252.4,2394.6 252.2,2394.9 252.1,2395.8 252.4,2396.7 253,2397.5 253.7,2398 254.1,2398.5 
				254.7,2398.5 255.5,2398 255.7,2398.7 256.5,2398.5 256.8,2398.8 256.7,2399.3 256.1,2399.9 255.9,2399.9 254.2,2401.7 
				253.2,2402 252.4,2402.8 252.3,2404.6 252.6,2404.8 253.5,2404 253.9,2404 254.5,2405.3 254.9,2405.7 255.3,2406.4 255.6,2406.3 
				255.6,2405.8 255.2,2404.6 255.3,2403.5 255.9,2402.9 256.6,2402.7 256.9,2402.3 257.3,2401.7 257.9,2401.7 258.1,2402 
				259.1,2402 259.6,2401.6 258.7,2401.5 258.1,2400.9 258.5,2399.7 259.6,2398.8 259.6,2397.4 259.2,2396.9 259.4,2395.6 
				259.7,2395.3 260,2393 259.8,2392.5 259.1,2391.8 259.2,2391.5 259.7,2391.3 260.7,2391.3 261.4,2391.7 262.1,2391.7 
				262.2,2391.4 			"/>
			<polygon fill="#279989" points="257.7,2379.6 258.2,2379.6 258.5,2379.8 260.3,2382 260.5,2381.9 262.1,2383.8 262.2,2383.5 
				259.9,2380.1 258.2,2378.9 257.8,2378.9 257.5,2379.3 257.4,2379.7 257.5,2379.9 			"/>
			<polygon fill="#279989" points="251.6,2377.4 251.6,2377.9 252.3,2379.1 253.4,2378.9 253.6,2378.7 254.4,2378.7 254.6,2378.9 
				256.1,2379.4 256.3,2379.3 256,2378.9 254.7,2378.2 254,2377.3 253.2,2376.8 252.2,2376.8 			"/>
			<polygon fill="#279989" points="256.7,2380.1 257,2379.7 257.1,2379.5 257,2379.4 256.8,2379.4 256.4,2379.7 256.4,2380 
				256.5,2380.1 			"/>
			<polygon fill="#279989" points="251.3,2378.6 251.3,2378.3 251.2,2378.2 251.1,2378.3 251.1,2378.6 251.2,2378.7 			"/>
			<polygon fill="#279989" points="251.4,2379.8 251.5,2379.7 251.6,2379.5 251.5,2379.4 251.3,2379.4 251.1,2379.5 251.1,2379.7 
				251.2,2379.8 			"/>
			<polygon fill="#279989" points="248.4,2382.1 248.4,2382.3 248.4,2382.4 248.6,2382.4 248.8,2382.3 248.8,2382.1 248.7,2381.9 
				248.5,2381.9 			"/>
			<polygon fill="#279989" points="250.3,2380.2 250.3,2380.3 250.5,2380.3 250.7,2380.2 250.7,2380 250.3,2379.4 250.1,2379.5 
				250.1,2379.7 250.3,2380 			"/>
			<polygon fill="#279989" points="249.6,2379.8 249.5,2380 249.4,2380.2 249.7,2380.5 249.9,2380.5 250,2380.4 250.1,2380.2 
				249.8,2379.8 			"/>
			<polygon fill="#279989" points="249.1,2380.8 249,2380.9 248.9,2381.1 249,2381.2 249.2,2381.2 249.4,2381.5 249.6,2381.5 
				249.7,2381.3 249.7,2381.1 249.5,2380.8 			"/>
			<polygon fill="#279989" points="248.6,2399.3 248.7,2398.3 248.9,2398.1 249.2,2396 248.9,2395.7 248.3,2395.7 248,2396 
				248.2,2396.2 248,2397.6 246.8,2399 246.7,2399.8 247.2,2400.4 247.1,2401.6 247.7,2402.2 248.5,2402.2 249.1,2401.6 
				249.2,2400.7 248.8,2400.2 			"/>
			<polygon fill="#279989" points="246.6,2390.9 246.9,2391.2 247.2,2390.9 247.3,2390.7 247,2390.3 246.7,2390.7 			"/>
			<polygon fill="#279989" points="246.7,2388 247.5,2388 248.1,2387.4 248.6,2386.5 248.6,2386.2 249.1,2385.8 249.2,2385.3 
				248.9,2384.6 249,2383.9 248,2382.9 247.4,2382.9 246.9,2383.1 246.5,2383.9 245.7,2384.7 245.5,2384.7 244.7,2385.5 
				244.7,2385.8 244.7,2385.9 244.9,2385.9 245.2,2386.3 245.2,2386.5 245.3,2386.7 245.6,2387.3 246.4,2387.5 			"/>
			<polygon fill="#279989" points="246.4,2394.7 246.2,2394.7 245.6,2395.3 245.7,2395.4 246.3,2395.5 246.7,2395.1 			"/>
		</g>
		<g opacity="0.5">
			<g id="tahaa_6_">
				<polygon fill="#279989" points="301.9,2422.1 301.5,2421.5 301.2,2421.6 301.1,2421.9 300.2,2422.8 300.1,2423.3 300.7,2424.5 
					301.1,2424.5 301.7,2423.9 301.7,2423.5 301.5,2423.1 301.2,2423.4 301,2423 301.3,2422.9 				"/>
				<polygon fill="#279989" points="310.8,2438.5 311,2438.5 311.3,2438.9 311.2,2439.5 311.4,2439.8 311.2,2440.9 312.2,2442 
					313.4,2442.2 313.8,2443.4 314.6,2443.6 314.9,2442.1 315.4,2441.2 315.6,2440 315.3,2439.3 315.2,2438.4 314.9,2437.9 
					315.1,2436.6 315.2,2437 316.3,2438.5 316.6,2438.4 316.7,2438.2 317.2,2437.6 317.8,2438.6 317.8,2438.8 317.3,2439.3 
					317.2,2440.2 317.6,2441.1 317.9,2440.9 318.3,2440.4 318.5,2440.7 318.4,2441.4 318.2,2441.6 318,2443 318.2,2443.3 
					318.1,2444 317.9,2444.2 317.5,2445.8 318,2445.9 318.2,2445.5 319.5,2444.8 321.1,2445 321.6,2444.5 321.9,2445 322.3,2445 
					322.8,2444.8 323.9,2443.6 324.7,2443.3 324.1,2441.4 324.5,2441.1 324.7,2441.1 325.6,2442 326,2442 326.3,2441.6 
					326.4,2440.9 326.7,2440.5 327.9,2438.8 327.2,2438.7 327,2439 326.2,2439 326,2438.7 325.4,2438.7 325,2438.5 325,2438.1 
					325.9,2437.5 325.9,2437.2 325.6,2436.8 325.5,2435.8 325.2,2435.5 324.2,2435.5 323.5,2435 322.8,2435 322.1,2434.5 
					320.7,2434.5 320.5,2434.3 319.7,2434.3 318.7,2433.8 318.1,2432.7 317.5,2432.7 317,2433.1 316.9,2433 317.8,2431.7 
					318.2,2431.8 318.7,2431.3 319.2,2432.2 319.6,2432.2 319.9,2432.7 320.3,2432.7 320.5,2432.9 320.9,2432.9 321.4,2432.2 
					322.2,2432.2 322.4,2432 322.8,2432.2 323.7,2432 324,2432.2 324.3,2432.6 324.2,2433.3 324.8,2434.1 325.2,2434.1 
					325.4,2434.3 326.4,2434.3 326.9,2434.8 327.3,2434.8 327.7,2434.4 328.1,2433.8 328.5,2433.8 329.3,2433.3 328.9,2433 
					329,2432.1 329.3,2431.6 328.7,2430.8 327.7,2430.8 327.4,2431.1 325.6,2430.8 325.2,2430 325.3,2429.5 325.6,2429.2 
					326.5,2429.2 327,2429.6 327.6,2429.7 327.8,2429.9 328.8,2429.9 329,2430.1 331,2430.3 331.4,2429.8 331.5,2429.1 
					331.7,2428.8 331.8,2427.9 332,2427.7 332.3,2426 332,2425.7 331.2,2425.7 331,2425.9 330.6,2425.9 330.2,2425.5 329.5,2425 
					329,2424.9 328.9,2423.9 329.2,2423.8 329.4,2424.1 329.8,2424.1 330.6,2423.5 330.6,2423 330,2422.4 329.4,2422.4 328.6,2422 
					328.4,2421.4 328.2,2420.6 328,2420.6 327.5,2421 326.8,2420.8 326.5,2420.5 326.5,2419 325.7,2418.2 324.7,2417.8 
					323.9,2418.6 323.9,2418.8 324.2,2419.3 324.2,2419.8 323.6,2420.3 323.3,2419.8 323.4,2419.3 323.6,2419.1 323.3,2418.4 
					323.3,2417 323,2416.6 322.6,2416.6 321.9,2417.2 322.2,2417.4 322.2,2417.9 321.7,2418.6 321.8,2419.1 321.7,2419.4 
					321,2418.8 321.5,2417.9 321.4,2417.7 321.5,2417 321.2,2416.6 320.8,2416.6 320.6,2416.8 319.8,2416.9 319.5,2417.1 
					319.2,2416.9 318.3,2416.8 318.2,2417.2 317.9,2417.3 317.4,2416.4 316.8,2416.4 316.4,2415.9 316.2,2415.9 315.7,2415.2 
					314.7,2415.5 314.5,2415.2 313.9,2415.2 313.2,2416.2 312.1,2416.6 311.5,2417.2 311.2,2418.1 310.8,2418.5 309.6,2418.3 
					309.2,2418.5 307.9,2419.8 307.9,2420 306,2421.6 306,2422.1 306.3,2422.5 306.3,2422.8 305.9,2423.1 305.3,2423.1 
					305.2,2422.9 304.6,2423 304.8,2423.2 304.7,2424.2 304.5,2424.4 304.4,2425.1 305.4,2425.9 305.8,2425.9 306,2426.3 
					306,2426.7 305.6,2427.1 305,2427.1 304.8,2427.3 304.4,2427.1 303.8,2427.1 303.4,2427.4 303.3,2428.4 303.6,2429.3 
					303.5,2430 303.8,2430.9 303.7,2431.4 303.9,2431.6 303.5,2433 304.7,2434.3 305.8,2434.5 306.2,2435 306.6,2435.2 
					307.2,2435.2 307.7,2434.5 308.6,2434.1 308.9,2434.3 309.5,2434.3 310,2433.8 310.2,2434.1 310.6,2434.1 310.9,2433.6 
					311.5,2433.4 312,2432.9 312.1,2433.4 312.3,2433.4 312.3,2433.6 311.6,2433.8 310.2,2435.2 309.2,2435.7 307.7,2437 
					308.1,2437.6 308.9,2437.8 309.5,2438.6 309.7,2439.2 310.3,2439.2 				"/>
				<polygon fill="#279989" points="328.5,2410.3 328.7,2410.6 328.9,2410.2 328.8,2410.1 328.2,2410.1 327.8,2410.4 327.8,2410.7 
					328.1,2410.8 				"/>
				<polygon fill="#279989" points="330.1,2411.6 330.1,2411.9 330.1,2412 330.4,2412 330.5,2411.9 330.2,2411.5 				"/>
				<polygon fill="#279989" points="329.8,2411.3 330.2,2410.9 330.2,2410.7 329.9,2410.6 329.7,2410.8 329.5,2410.6 329.3,2410.6 
					329.2,2410.9 329.4,2411.3 				"/>
				<polygon fill="#279989" points="326.3,2410.3 326.4,2410.2 326.5,2409.8 326.4,2409.6 326.2,2409.9 326,2409.9 325.8,2409.6 
					325.6,2409.6 325.5,2409.7 325.4,2410.2 325.5,2410.3 				"/>
				<polygon fill="#279989" points="327.1,2410.6 327.2,2410.5 327.3,2410 327.2,2409.9 327,2409.9 326.9,2410 326.8,2410.5 
					326.9,2410.6 				"/>
				<polygon fill="#279989" points="336.6,2420.1 336.7,2420 336.7,2419.8 336.7,2419.6 336.5,2419.6 336.1,2420 336.2,2420.1 				
					"/>
				<polygon fill="#279989" points="332.7,2415.9 332.9,2416.3 332.7,2416.5 332.8,2416.6 333,2416.6 333.3,2416.3 332.9,2415.7 
					332.2,2415.8 				"/>
				<polygon fill="#279989" points="331,2413.1 331.2,2413.1 331.6,2412.8 331.5,2412.7 331.3,2412.7 330.9,2413 				"/>
				<polygon fill="#279989" points="331.3,2414.1 331.6,2414.2 331.7,2414.9 332,2415 332.2,2414.2 331.9,2413.7 331.9,2413.5 
					331.8,2413.4 331.1,2413.5 				"/>
				<polygon fill="#279989" points="310.1,2410.7 310.6,2411.3 311,2411.3 311.2,2411 312.2,2411.3 312.6,2410.8 313.7,2410.3 
					314.1,2410.6 314.2,2410.2 313.3,2409.2 310.8,2409.2 310,2409.8 310,2410.2 310.2,2410.4 				"/>
				<polygon fill="#279989" points="319.5,2409.6 319.9,2409.6 320,2409.8 319.8,2410 320,2410.1 320.4,2409.8 320.4,2409.5 
					320.3,2409.4 319.3,2409.4 319,2409.7 318.9,2410 319.2,2410.1 				"/>
				<polygon fill="#279989" points="322.1,2409.9 322.2,2409.8 322.2,2409.5 322,2409.2 321.8,2409.2 321.7,2409.3 321.6,2409.8 
					321.7,2409.9 				"/>
				<polygon fill="#279989" points="321.1,2409.9 321.2,2409.8 321.2,2409.5 321.2,2409.4 320.9,2409.4 320.8,2409.5 320.8,2409.7 
					320.9,2409.9 				"/>
				<polygon fill="#279989" points="323.9,2410.1 324.2,2409.8 324.2,2409.6 324,2409.6 323.6,2410 323.7,2410.1 				"/>
				<polygon fill="#279989" points="318,2410.3 318.6,2409.8 318.6,2409.5 318.5,2409.4 318.3,2409.4 318.1,2409.2 317.7,2409.2 
					317.6,2409.3 317.5,2410.2 317.6,2410.3 				"/>
				<polygon fill="#279989" points="315.8,2410.3 316.2,2409.9 316.4,2409.9 316.8,2410.3 317.1,2410.2 316.9,2409.2 316.5,2409.4 
					316.1,2409.2 315.9,2409.4 315.1,2409.4 314.9,2409.8 315.3,2410.3 				"/>
				<polygon fill="#279989" points="338.3,2422.7 338.4,2422.6 338.4,2422.3 338.4,2422.2 338.2,2422.2 338,2422.3 338,2422.6 
					338.1,2422.7 				"/>
				<polygon fill="#279989" points="330.4,2412.5 330.5,2412.7 330.9,2412.7 331.2,2412.3 331.1,2412.2 330.5,2412.2 330.4,2412.3 
									"/>
				<polygon fill="#279989" points="324.3,2410.3 324.7,2410.3 325.2,2410 325,2409.6 324.8,2409.6 324.2,2410.2 				"/>
			</g>
			<g id="raiatea_6_">
				<polygon fill="#279989" points="342.9,2490.2 342.5,2490.4 342.2,2490.6 341.2,2490.6 341.1,2490.4 339.4,2490.4 339.3,2490.3 
					339.9,2489.7 340.8,2489.2 342,2489.2 342.8,2488.4 343,2488.1 343.3,2487.9 342.9,2487.1 342.3,2487.1 342.1,2487.4 
					341.3,2487.1 340.8,2487.6 339.2,2487.6 339,2487.4 338.6,2487.4 338.5,2487.3 339.1,2486.7 339.9,2486.3 340.2,2485.4 
					340,2484.8 338.8,2484.6 338,2484.1 337.3,2483.6 336.7,2484.2 336.7,2484.5 336.4,2484.6 335.4,2485.5 334.8,2484.7 
					335,2484.3 335.4,2484.6 335.5,2484 335,2482.7 334.4,2482.7 334.1,2483 333.9,2482.4 334,2481.9 335,2480.5 335.1,2479.8 
					335.3,2479.6 335,2479.2 334.6,2479.7 333.8,2479.2 333.2,2479.2 332.7,2479.6 332.6,2480 331.8,2480.8 331.6,2480.8 
					331.1,2481.3 330.6,2481.4 330.5,2481.7 329.9,2482.4 329.8,2482.8 328.7,2484.1 328.6,2483.4 328.2,2483.6 328.1,2483.3 
					328.4,2483.2 329,2482.4 329.6,2481.2 332.2,2478.7 332.2,2478.4 333.5,2477.1 334.2,2476.8 334.5,2476.3 333.8,2476.2 
					333.6,2476.4 333,2476.4 332.8,2476.2 332.4,2476.2 332.2,2476 331.7,2475.9 331.8,2475.6 332.2,2475.1 332.6,2474.2 
					333,2473.8 332.8,2473.2 332.4,2473.2 332.2,2473.4 331.1,2473.4 330.9,2473.1 331,2472.4 331.8,2471 331.4,2470.4 
					330.9,2470.4 330.4,2471.1 330,2471.3 329.4,2471.3 329,2470.5 329.4,2469.9 329.9,2469.8 329.6,2469.3 329.8,2469.1 
					329.7,2468.6 329.9,2468.2 329.7,2467.9 329.8,2467.5 329.3,2466.8 329.3,2466.5 328.8,2465.8 328.4,2464.2 328.2,2463.9 
					327.7,2463.8 327.9,2463.3 328.2,2463 328,2462.2 327.7,2462.5 326.9,2462.5 326.5,2462.1 326.6,2461.4 327.7,2460.5 
					327.8,2460 327.3,2459.7 326.3,2458 325.8,2457.7 325.9,2457.2 325.6,2456.9 325.2,2456.9 325.2,2456.5 324.5,2456 
					323.5,2455.9 323.4,2455.7 322.7,2456.2 322.1,2456.2 321.5,2455.7 320.7,2455.7 319.8,2456.7 319,2456.7 318.5,2456.9 
					318.2,2457.5 318.1,2458.2 318.6,2458.9 318.5,2459.3 318.2,2459.7 317.7,2458.5 317.3,2458.5 317,2459 316.5,2458.3 
					316.2,2458.4 316.1,2459.3 316.2,2459.8 316.8,2460.2 316.7,2460.5 316.4,2460.8 315.8,2460.4 315.4,2460.4 315.1,2460.7 
					315,2461 315.8,2461.6 315.7,2461.9 316.1,2462.3 315.9,2462.7 315.3,2462.7 314.2,2462 313.7,2462.4 313.6,2464 313.4,2464.2 
					313,2465.6 312.8,2465.9 312.9,2466 313.7,2466 313.9,2465.7 314.6,2465.8 313.5,2466.8 313,2467.5 313.1,2468.2 312.1,2469.1 
					312.6,2470 312.5,2470.7 312.8,2471.7 313.3,2472.4 312.6,2472.8 312.4,2474.7 311.4,2475.9 311.5,2476.2 312.2,2476.6 
					311.7,2478.4 312.2,2479.3 312.3,2481.4 312.5,2482 312.8,2482.1 312.8,2482.6 313,2482.9 313.4,2482.9 313.6,2482.6 
					313.4,2482.4 314,2482 314.4,2482 314.4,2482.4 314.2,2482.6 314.1,2483.1 314.3,2483.3 314.2,2483.7 313.9,2484.1 
					313.7,2484.1 313.1,2484.9 313.5,2485.3 313.8,2485.9 312.6,2486.8 312.8,2487.3 312.3,2487.9 312.2,2488.4 312.3,2488.9 
					312.7,2489.1 312.7,2489.4 312.2,2489.8 311.9,2490.5 312.2,2490.9 312.6,2490.6 313,2491.4 311.7,2493.3 311.7,2493.8 
					311.9,2494.1 313,2494.1 313.6,2493.6 314.2,2493.6 314.5,2493.4 314.9,2493.4 315.4,2493.9 315.8,2493.9 316.1,2494.2 
					314.3,2495.6 314,2496.3 314.3,2496.8 314.2,2497.3 314.6,2497.7 314.6,2498 315,2498.2 314.7,2498.4 314.8,2499.6 
					315.7,2499.7 315.7,2500 315.5,2500.3 315.8,2501.3 316.2,2501.3 316.7,2501.9 316.6,2502.4 316,2503 315,2503 314.4,2503.5 
					314.4,2504 314.5,2504.5 313,2506.3 313,2507 313.6,2507.6 314.4,2507.6 315.1,2506.9 315.3,2506.9 315.5,2507.5 315.4,2508.2 
					315.2,2508.4 315.5,2508.9 315.2,2509.8 315.5,2510.2 315.9,2509.9 316.9,2510.2 317.1,2510.4 317.7,2510.4 318.7,2509.9 
					318.9,2509.6 320.4,2508.1 320.9,2507.9 321.2,2508.1 322.2,2507.5 322.1,2507.3 322.3,2507 322.1,2506.6 322.3,2505.2 
					322.6,2504.9 322.6,2504.5 322.3,2503.8 322.9,2503.2 323.2,2503.9 323.7,2503.7 324,2503.9 324.7,2502.9 324.4,2502.5 
					324,2502.2 324,2501.7 323.9,2501.5 324.4,2500.5 324.3,2499.6 324.9,2499 325.5,2499.2 325.9,2499.8 325.8,2500.7 325.9,2501 
					325.8,2501.7 326.2,2502.2 326.6,2503.5 326.6,2504 327,2504.1 327.2,2503.8 327,2503.6 327.1,2503.1 327.5,2502.3 
					328.2,2502.7 328.6,2503.2 330.2,2503 330.4,2503.2 331.8,2503.2 332.2,2502.4 332.6,2502.3 333.2,2501.7 333.2,2501.5 
					332.7,2500.7 333.5,2500.2 333.8,2500.4 335,2501.1 335.6,2500.3 335.1,2499.6 335.4,2498.7 335.7,2498.5 335.9,2498.8 
					336.7,2498.8 337.4,2498.1 337.9,2498.4 337.6,2498.7 337.7,2499 338.5,2499 338.8,2498.7 338.9,2498.2 338.5,2497.7 
					338.6,2497.3 339.2,2496.4 339.5,2496.6 339.4,2497 339,2497.5 339.1,2497.6 340.1,2497.6 340.4,2497.3 340.7,2496.6 
					342.8,2494.7 342.9,2494 343.1,2493.8 343.2,2493.3 343.7,2492.6 343.8,2492.1 343.6,2491.9 343.8,2491.7 344,2490.5 
					343.7,2490.2 				"/>
			</g>
			<g id="huahine_6_">
				<polygon fill="#279989" points="419.1,2480.9 418.7,2480.9 418.1,2481.7 418.3,2482.1 418,2482.4 418,2482.8 418.2,2483.2 
					418.6,2483.2 419,2482.8 419.1,2481.7 418.9,2481.4 419.2,2481.2 				"/>
				<polygon fill="#279989" points="425.4,2467.1 423.3,2464.6 422.7,2464.6 422.4,2464.9 422.4,2465.1 422.8,2465.3 423,2465.7 
					423.4,2465.7 424.6,2467.6 425.1,2467.8 425.9,2469.1 425.9,2470.7 426.6,2470.8 426.9,2470.5 427.2,2469.6 427,2468.4 				"/>
				<polygon fill="#279989" points="423.6,2469.6 423.5,2468.6 423.2,2468.2 423.1,2467.2 422.7,2466.4 422.5,2466.4 421.5,2467.4 
					421.3,2467.2 421.8,2466.5 421.6,2465.5 421,2465.7 420.2,2466.7 420,2466.3 420.3,2465.4 420.6,2465 421.2,2464.9 
					420.7,2464.3 420,2464.1 419.1,2464.8 418.2,2465.3 417.7,2466 417.3,2466 415.6,2467.6 414.6,2467.6 413.9,2468 413.1,2468 
					412.9,2468.3 412.3,2468.3 410.7,2469.5 410.1,2469.7 409.7,2469.5 408.7,2470.8 407.8,2471.3 407,2471.3 406.7,2471.7 
					406.6,2472.1 406.9,2472.6 407,2473.2 407.4,2473.2 408.3,2472.5 408.7,2472.5 408.9,2472.2 408.9,2472.8 409.1,2473.1 
					408.8,2473.2 408.6,2473.4 407.6,2473.5 407.3,2474.4 407.7,2475 408.7,2475.5 409,2476 410.1,2475.7 410.4,2475.4 
					410.2,2475.2 410.5,2474.9 410.7,2473.5 410.5,2473.3 410.7,2472.5 411.4,2472.2 411.6,2472.6 411.6,2473.1 412,2473.6 
					412.8,2473.9 413,2474.5 412.9,2474.6 412.7,2474.6 412.5,2474.6 410.8,2476.2 410.6,2476.2 410,2476.8 410.2,2477.2 
					410.7,2477.4 410.7,2477.7 411,2477.8 411.1,2478.2 412,2479.5 412.2,2480.4 412.5,2480.6 412.9,2480.6 413.5,2480.2 
					413.9,2480.4 414.3,2480.4 415,2481 414.8,2482.4 414.5,2482.8 414.8,2483.2 415.2,2483.2 415.5,2483.9 416.1,2483.6 
					416.5,2483.3 416.7,2482.8 416.9,2481.7 416.6,2480.7 416.7,2480.3 418.1,2479.7 418.8,2479 419,2479 419.6,2478.2 
					419.9,2477.7 420,2477 419.4,2476 418.9,2475.8 419.4,2475.5 420.1,2475.5 420.2,2475.7 420.8,2475.7 421.2,2476.2 
					421.4,2476.2 422.2,2475.4 422.5,2474.7 423.4,2474 423.7,2473.5 423.8,2472.6 423.6,2472.4 424.1,2470.3 				"/>
				<polygon fill="#279989" points="405.1,2467.9 405.2,2467.2 405.8,2466.7 406.9,2466.4 407.8,2465.7 407.8,2466.1 407.4,2466.5 
					407.3,2466.8 407.7,2467.2 407.6,2467.7 407.8,2468.3 408.7,2469 408.9,2469.2 409.3,2469.2 410.6,2468.5 411.5,2468.5 
					411.8,2468.2 411.5,2465.8 411.2,2465.1 410.5,2464.4 410.5,2464.2 410.6,2464.1 410.8,2464.3 411.1,2463.9 411.7,2464.8 
					413.2,2464.6 413.7,2464.2 413.5,2463.9 413.1,2463.9 412.8,2463.5 412.9,2463 413.2,2462.9 413.4,2463.2 414.2,2463.2 
					414.5,2463.3 414.4,2463.8 414.8,2464.3 415.3,2464.1 415.6,2464.6 415.8,2464.6 416.4,2464 416.5,2463.7 417,2463.4 
					418.4,2463.4 419.3,2462.7 420.4,2462.7 420.7,2462.1 420.2,2461.7 420,2461.2 420.1,2460.7 419.9,2460.5 420.2,2460.3 
					420.3,2459.6 420,2459.4 419.7,2459.9 419.5,2459.6 419.9,2459.1 419.7,2458.9 420,2458.2 419.8,2457.8 418.7,2458 
					418.5,2458.3 418.1,2458.3 417.9,2458.5 417.4,2458.4 417.5,2458 418.4,2457.8 419.2,2457 419.2,2456.5 418.9,2455.8 
					419.1,2454.7 419.9,2453.6 420.3,2454.3 420.6,2454.2 420.9,2453.3 421.1,2453 421.3,2452.1 421,2451.2 421.2,2449.8 
					420.9,2448.9 420,2447.7 419.8,2446.5 418.6,2445.2 416.6,2445.5 416.2,2445.5 415.9,2445.7 413.7,2445.7 413.5,2446 
					413.3,2445.7 412.7,2445.7 412.4,2445.9 411.4,2445.9 411.2,2446.2 410.2,2446.2 409.9,2446.4 409.5,2446.4 408.2,2447.7 
					406.9,2450 406.5,2450.5 405.9,2451.4 406.3,2452.8 406.8,2453.4 407,2453.4 407.6,2454 407.3,2454.9 407.4,2455.4 
					407.7,2455.7 408.1,2455.7 408.1,2456.1 407.4,2456.2 407.3,2456 406.6,2455.9 406.3,2456.3 406.1,2457.5 406.3,2457.7 
					406.2,2458.2 406.6,2458.6 406.5,2459.1 406.9,2459.6 406.8,2459.8 407.3,2460.5 407,2460.8 405.4,2459 405,2459 404.6,2459.6 
					403.9,2460.3 403.4,2461.2 403.2,2462.8 403.3,2463.1 402.9,2464.9 402.7,2465.1 402.5,2466.1 402.7,2466.3 402.7,2466.8 
					403.4,2467.5 402.8,2468.4 402.8,2468.9 403.1,2469.3 403.1,2469.6 403.9,2470.4 404.5,2470.4 405.1,2470 405.3,2468.2 				"/>
				<polygon fill="#279989" points="421,2457.2 421.3,2457.9 421.4,2458.9 421.7,2459.1 421.7,2459.8 421.2,2460.5 421.8,2461.3 
					422.3,2461 422.3,2459.3 422.6,2459.1 422.6,2458.4 421.6,2456.7 421,2456.8 				"/>
				<polygon fill="#279989" points="420.2,2454.8 420,2455.1 420.2,2455.6 419.9,2456.1 420.4,2456.2 420.8,2456 421.2,2456.2 
					421.4,2455.8 421.1,2455.2 				"/>
			</g>
			<g id="moorea_6_">
				<polygon fill="#279989" points="500.7,2516 500.5,2515.3 500,2515.3 499.8,2514.7 499.5,2514 499.6,2513.6 499.3,2512.7 
					498.6,2511.4 498.2,2511.4 497.8,2510.9 497.2,2510.9 496.5,2511.8 495.6,2512.1 495.4,2512.3 494.8,2512.3 493.9,2512.8 
					493.3,2512.8 492.4,2513.4 491.8,2513.5 491.4,2513.2 491.2,2513 490.4,2513 490,2513.5 488.8,2513.2 488.1,2513.7 
					487.7,2513.9 487.1,2513.9 486.7,2514.3 486.5,2515.4 486.3,2515.7 486.4,2516.1 486.3,2516.8 486.1,2517.1 486,2517.8 
					486.3,2518.5 486.2,2519.1 486.4,2519.4 485.6,2520.8 485.2,2521.1 484.8,2521.1 484.6,2520.8 484.4,2520.3 484.9,2518.7 
					484.5,2518.2 484.6,2517.3 484.4,2516.4 484.8,2514.7 484.2,2514.2 483.4,2514.2 482.7,2514.6 481.7,2514.4 481.5,2514.2 
					480.3,2514.2 479.9,2514.4 479.1,2515.2 478.2,2516.8 477.7,2517.5 477.6,2518.2 477.4,2518.5 477.2,2519.9 477.4,2520.1 
					477.3,2521.7 477.7,2521.9 477.6,2523.1 477.2,2523.5 476.8,2523.5 476.5,2523.1 476.6,2522.7 476.3,2521.7 475.8,2521.3 
					476.1,2520.3 476,2519.9 475.8,2519.6 475.9,2519.2 475.3,2518.7 475.3,2517.8 474.6,2517.4 473.9,2516.3 473.1,2516.2 
					472.9,2516.5 472.1,2516.3 471.7,2516.7 470.7,2516.5 470.3,2516 469.5,2516 469.1,2516.5 468.9,2516.5 468.5,2516 
					467.8,2515.6 467.1,2516.3 466.4,2516.3 466.3,2516 465,2516.2 464.5,2515.8 464,2516.5 463.3,2516.7 463,2517.1 462.6,2518.2 
					462.4,2518.5 462.2,2520.1 462.3,2520.3 462.2,2521 462,2521.3 461.9,2522 462.3,2523.1 462.3,2523.8 462,2524 462.4,2525.7 
					463.1,2526.4 463.5,2527.8 463.4,2528.2 463.8,2528.7 463.7,2528.9 464.3,2529.4 464.5,2530.2 465.9,2530.4 466.2,2531.1 
					466.6,2531.1 466.6,2531.7 467,2532.3 467.4,2532.3 467.8,2532.8 468.6,2533 468.8,2533.4 468.8,2533.8 469,2534.2 
					469.4,2534.2 469.7,2534.9 469.9,2534.9 469.9,2535.4 470.4,2536.1 470.2,2536.4 470.1,2536.8 470.8,2537.4 471.2,2538.2 
					471.1,2538.7 471.5,2538.9 471.5,2539.3 472.3,2539.8 472.3,2540.1 472.8,2540.5 473.1,2541.1 473.3,2541.2 473.7,2540.6 
					474,2540.5 474.3,2540.8 473.8,2542.4 474.1,2542.5 474.3,2543 475.3,2543 476.3,2541.6 476.5,2542 476.5,2543.4 476.3,2543.6 
					476.2,2544.1 476.5,2544.4 476.9,2544.4 477.1,2544.6 477.5,2544.6 477.7,2544.4 478.7,2544.4 479,2544.2 479.1,2544.4 
					480.1,2544.7 480.6,2545.1 481.3,2545.1 481.9,2544.6 482.3,2544.6 482.5,2544.9 483.8,2544.6 483.9,2544.9 484.3,2544.9 
					485.2,2544.4 485.6,2544.1 485.2,2543.4 485.6,2542.8 486.1,2542.8 486.6,2542.1 486.9,2542.1 487.3,2541.7 487.6,2541.3 
					487.7,2540.6 487.9,2540.3 488.1,2539.2 488.5,2538.6 489.2,2538.3 489.1,2537.3 489.6,2536.8 490.4,2535.4 490.8,2534.5 
					490.6,2534.3 490.6,2533.8 490.9,2533.6 490.8,2532.9 491.3,2532.5 491.7,2532.5 492.8,2531.8 493.9,2531.4 494.5,2530.8 
					495.1,2529.9 495.2,2528.9 495.4,2528.7 495.6,2527.5 495.3,2526.6 495.4,2525.7 494.8,2525.1 494.4,2525.1 494.1,2524.7 
					494.2,2524.3 494.6,2523.9 495.8,2524.2 496.2,2523.9 496.8,2523.3 496.8,2522.9 497.5,2522.4 497.4,2522 497.5,2521 
					498.5,2520.1 499,2518.9 499.4,2518.6 500.2,2518.3 500.7,2517.9 501.5,2517.9 501.9,2517.5 501.9,2516.8 501.5,2516.3 				"/>
			</g>
			<g id="tetiaroa_6_">
				<path fill="#279989" d="M545.8,2403.7c0.3,0,0.8,0,0.9,0c0,0,1,0.1,1.3,0.2c0.2,0,0.4,0.1,0.6,0.1c0.2,0,0.4,0,0.5,0h0.1
					c0.4,0,0.9,0.3,1.1,0.3c0.2,0.1,0.8,0.2,1,0.3c0.2,0.1,1.9,0.4,2.5,0.6c0.6,0.2,3,0.8,3.6,1c0.5,0.2,2,0.8,2.5,1.2
					c0.5,0.4,0.9,1.3,1,1.5c0.1,0.3,0,1.4-0.1,1.7c-0.1,0.3,0.2,0.7,0.2,1c0,0.3,0,0.7-0.1,1c-0.1,0.3,0.3,1.2,0.3,1.2
					s0.3,1.6,0.5,2c0.2,0.4,0.8,1.5,0.7,1.8c0,0.3,0.2,1.5,0.2,1.8c0,0.3-0.2,1.9-0.4,2.4c-0.2,0.5-0.4,0.9-0.7,1.1
					c-0.2,0.2-0.2,0.3,0,0.7c0.2,0.4-0.3,0.9-0.6,1.3c-0.3,0.4-0.4,0.8-0.4,0.8s-0.2,0.8-0.3,0.8c-0.1,0.1-0.2,0.8-0.3,1
					c-0.1,0.2-0.6,2.2-0.8,2.4c-0.2,0.2-0.1,0.5-0.1,0.9c-0.1,0.3-0.2,1.7-0.3,1.9c-0.1,0.2-0.3,0.9-0.4,1.1c0,0.1-0.4,0.7-0.6,1
					c-0.2,0.3-0.8,1.3-1.1,1.5c-0.2,0.1-0.5,0.2-0.8,0.2c-0.1,0-0.2,0-0.3-0.1c-0.1-0.1-0.1-0.1-0.2-0.1c0,0,0,0-0.1,0
					c-0.1,0-0.1,0-0.3-0.1c-0.3-0.2-1-1.2-1.3-1.6c-0.3-0.5-0.8-1.3-0.9-1.7c0-0.5-0.8-2.1-1.1-2.6c-0.3-0.5-1.1-1.2-1.6-1.2
					c-0.5,0-1.2,0.3-1.4,0.3c-0.2,0-0.6-0.4-0.6-0.7c0-0.3,0.4-0.8,0.4-1.2c0-0.3-0.4-1.1-0.7-1.5c-0.3-0.4-1.3-1.6-1.9-2
					c-0.4-0.3-1.4-0.4-2.3-0.4c-0.2,0-0.4,0-0.7,0c-1.1,0.1-3.1,0.5-3.7,0.8c-0.7,0.3-1.3,1.5-1.3,1.6c-0.1,0.1-0.3,0.4-0.9,0.6
					c-0.6,0.2-1.7,0.5-2.1,0.6c-0.1,0-0.1,0-0.2,0c-0.4,0-1-0.2-1.3-0.5c-0.3-0.4-2-2-2.3-2.5c-0.3-0.5-0.8-1.5-0.7-1.7
					c0-0.2,0.4-2.1,0.7-2.6c0.2-0.5,1.2-2.1,2-3.2c0.8-1.1,1.7-2.9,2.2-3.8c0.5-0.9,1.7-4.1,1.8-4.3c0.1-0.2,0.8-1.8,1.6-2.8
					c0.7-0.9,2.7-1.7,3.2-2c0.5-0.3,3.3-0.3,3.5-0.3C545.5,2403.7,545.6,2403.7,545.8,2403.7 M542.6,2418.7c0.3,0,0.7,0,0.9-0.1
					c0.2-0.1,0.6-0.1,1.1-0.1c0.7,0,1.6,0.1,1.8,0.1c0.3,0.1,0.9,0.5,1.2,0.5s1,0.2,1,0.3c0,0.1,0.4,0.5,0.5,0.6
					c0.1,0.1,0.1,0.4,0.3,0.8c0.2,0.4,1.1,0.9,1.3,1.3c0.2,0.5,0.4,0.7,0.5,0.7h0c0.1,0,0.3-0.1,0.4-0.1c0.1,0,0.1,0,0.2,0.1
					c0.1,0.2,1,0.1,1.5,0.3c0.5,0.3,1.3,0.2,1.8,0.4c0.2,0.1,0.3,0.1,0.5,0.1c0.3,0,0.5-0.1,0.5-0.1s0.4-0.9,0.7-1.2
					c0.2-0.3,0.5-0.9,0.5-1.3c0-0.4,0.1-0.8,0.2-1.4c0-0.6-0.1-0.5,0.2-1c0.3-0.5,0.6-2,0.7-2.2c0-0.2-0.1-1.6-0.2-2.4
					c-0.2-0.8-0.5-1.8-0.8-2.3c-0.3-0.5-0.6-0.5-0.6-0.9c0-0.4,0.3-1.8-0.1-2.3c-0.3-0.4-1.3-0.8-2.1-0.8c-0.2,0-0.4,0-0.5,0.1
					c-0.4,0.2-0.9,0.5-1.3,0.5c-0.1,0-0.2,0-0.3-0.1c-0.3-0.3-0.7-0.8-0.8-0.9c-0.1-0.1-0.2-0.4-0.5-0.4c-0.1,0-0.1,0-0.2,0
					c-0.5,0.2-0.8,0-0.8,0.3c0,0.3-0.1,0.5-0.2,0.8c-0.1,0.2-0.6,0.4-1,0.4c-0.1,0-0.2,0-0.3,0c-0.5-0.1-0.4-0.4-0.9-0.4
					c0,0,0,0-0.1,0c-0.1,0-0.3,0-0.4,0c-0.4,0-0.7-0.1-1.1-0.3c-0.5-0.3-0.1-0.6-1.2-0.7c-0.8-0.1-1-0.4-1.3-0.4
					c-0.1,0-0.3,0.1-0.5,0.2c-0.3,0.2-1.1,1.3-1.3,1.8c-0.1,0.5-0.8,2.1-0.8,2.4c-0.1,0.3-0.3,0.6,0,1.1c0.3,0.5,0.7,1.5,0.6,1.6
					c-0.1,0.1,0.3,0.4,0.3,0.4c0,0.1,0.3,0.7-0.2,1.2c-0.5,0.5-1.1,1.6-0.9,2.1c0.1,0.5,0.1,1,0.5,1
					C541.2,2418.6,542,2418.7,542.6,2418.7 M545.8,2403.3L545.8,2403.3c-0.2,0-0.4,0-0.5,0c-0.1,0-0.4,0-0.7,0
					c-1.7,0.1-2.6,0.1-3,0.3c-0.1,0.1-0.3,0.1-0.5,0.2c-0.8,0.4-2.2,1.1-2.8,1.9c-0.8,1-1.6,2.7-1.7,2.9c-0.1,0.2-1.2,3.3-1.8,4.2
					c-0.2,0.3-0.4,0.8-0.7,1.3c-0.5,0.9-1,1.8-1.5,2.5c-0.8,1.1-1.9,2.8-2.1,3.3c-0.3,0.6-0.7,2.7-0.7,2.7c-0.1,0.6,0.8,2,0.8,2
					c0.2,0.3,0.9,1,1.7,1.8c0.3,0.3,0.6,0.6,0.7,0.7c0.4,0.5,1.1,0.6,1.6,0.6c0.1,0,0.2,0,0.3,0c0.5-0.1,1.6-0.4,2.2-0.6
					c0.7-0.3,1.1-0.6,1.2-0.8c0.1-0.2,0.6-1.2,1.1-1.4c0.6-0.3,2.5-0.7,3.6-0.8c0.2,0,0.4,0,0.6,0c1,0,1.7,0.1,2.1,0.4
					c0.5,0.4,1.5,1.6,1.8,1.9c0.3,0.5,0.6,1.1,0.6,1.3c0,0.1-0.1,0.3-0.1,0.4c-0.1,0.3-0.2,0.5-0.2,0.8c0,0.5,0.5,1.1,1,1.1
					c0.2,0,0.4-0.1,0.6-0.1c0.3-0.1,0.6-0.2,0.8-0.2c0.3,0,1,0.5,1.2,0.9c0.4,0.8,1,2.1,1,2.5c0.1,0.5,0.5,1.2,0.8,1.7
					c0.1,0.1,0.1,0.2,0.1,0.2c0.1,0.2,1,1.5,1.5,1.8c0.2,0.1,0.3,0.1,0.5,0.1h0c0.1,0.1,0.3,0.1,0.5,0.1c0.3,0,0.7-0.1,1-0.3
					c0.3-0.2,0.6-0.6,1.2-1.6c0.1-0.1,0.2-0.2,0.2-0.4c0.3-0.4,0.4-0.6,0.4-0.8c0,0,0.1-0.2,0.3-0.9l0-0.1c0.1-0.2,0.1-0.5,0.2-1.4
					c0-0.2,0.1-0.4,0.1-0.5c0-0.1,0-0.3,0-0.4c0-0.2,0-0.3,0.1-0.3c0.1-0.2,0.2-0.5,0.5-1.4c0.1-0.4,0.3-0.9,0.3-1
					c0.1-0.2,0.2-0.4,0.3-0.7c0-0.1,0-0.2,0.1-0.3c0.1-0.1,0.2-0.3,0.4-1c0,0,0.1-0.3,0.3-0.6l0.1-0.1c0.4-0.5,0.8-1,0.6-1.6l0-0.1
					c0,0,0-0.1-0.1-0.2c0.3-0.2,0.6-0.7,0.8-1.3c0.2-0.6,0.3-2.2,0.4-2.5c0-0.2,0-0.6-0.1-1.1c0-0.3-0.1-0.7-0.1-0.8
					c0.1-0.5-0.8-2-0.8-2c-0.1-0.3-0.4-1.3-0.5-1.9l0,0l0,0c-0.2-0.4-0.3-0.8-0.3-0.9c0.1-0.4,0.1-0.8,0.1-1.1
					c0-0.2-0.1-0.4-0.1-0.6c0-0.1-0.1-0.3-0.1-0.3c0.2-0.4,0.3-1.6,0.1-1.9c-0.1-0.3-0.6-1.3-1.2-1.7c-0.4-0.3-1.3-0.7-2.2-1.1
					c-0.2-0.1-0.3-0.1-0.4-0.2c-0.3-0.2-1.1-0.4-2.3-0.7c-0.6-0.2-1.1-0.3-1.3-0.4c-0.3-0.1-0.9-0.2-1.4-0.3c-0.4-0.1-0.9-0.2-1-0.2
					c-0.2-0.1-0.4-0.2-0.7-0.2c-0.1,0-0.3-0.1-0.4-0.1c0,0-0.1,0-0.2-0.1c-0.3-0.1-0.7-0.3-1.1-0.3c0,0-0.1,0-0.1,0
					c-0.2,0-0.4,0-0.5,0c-0.2,0-0.4,0-0.5-0.1c-0.3-0.1-1.3-0.2-1.4-0.2l0,0h0c0,0-0.1,0-0.2,0
					C546.3,2403.3,546,2403.3,545.8,2403.3L545.8,2403.3L545.8,2403.3z M541.7,2413.8c0-0.6-0.5-1.6-0.7-1.8c-0.1-0.2-0.1-0.3,0-0.6
					c0-0.1,0.1-0.2,0.1-0.3c0-0.1,0.2-0.7,0.4-1.1c0.2-0.5,0.4-1,0.5-1.3c0.1-0.4,0.9-1.4,1.1-1.6c0.1-0.1,0.2-0.1,0.3-0.1
					c0.1,0,0.1,0,0.2,0.1c0.2,0.1,0.5,0.2,1,0.3c0.5,0.1,0.5,0.1,0.6,0.2c0.1,0.1,0.2,0.3,0.4,0.5c0.5,0.3,0.8,0.4,1.3,0.4
					c0.1,0,0.2,0,0.4,0c0,0,0,0,0.1,0c0.2,0,0.2,0,0.3,0.1c0.1,0.1,0.3,0.2,0.5,0.3c0.1,0,0.3,0.1,0.4,0.1c0.5,0,1.2-0.3,1.4-0.6
					c0.2-0.2,0.2-0.5,0.3-0.8c0.1,0,0.3,0,0.6-0.1c0,0,0,0,0,0c0,0,0.1,0.1,0.1,0.1c0.1,0.1,0.1,0.2,0.2,0.3c0,0,0.2,0.2,0.3,0.3
					c0.2,0.2,0.3,0.4,0.5,0.6c0.2,0.2,0.4,0.2,0.6,0.2c0.4,0,0.8-0.2,1.2-0.4c0.1,0,0.1-0.1,0.2-0.1c0,0,0.1,0,0.3,0
					c0.7,0,1.6,0.4,1.8,0.6c0.2,0.2,0.1,1,0,1.4c0,0.3-0.1,0.5,0,0.7c0,0.3,0.2,0.5,0.4,0.7c0.1,0.1,0.2,0.2,0.3,0.4
					c0.3,0.5,0.6,1.6,0.8,2.2c0.2,0.8,0.3,2,0.2,2.2l0,0c-0.2,1-0.4,1.8-0.6,2.1c-0.2,0.4-0.3,0.6-0.3,0.9c0,0.1,0,0.2,0,0.4
					c0,0.3-0.1,0.5-0.1,0.8c0,0.2-0.1,0.4-0.1,0.7c0,0.3-0.2,0.8-0.4,1c-0.2,0.2-0.5,0.8-0.6,1.1c0,0-0.1,0-0.2,0
					c-0.1,0-0.2,0-0.4-0.1c-0.3-0.1-0.6-0.1-0.9-0.2c-0.4-0.1-0.7-0.1-0.9-0.2c-0.3-0.2-0.7-0.2-1-0.2c-0.1,0-0.2,0-0.3,0
					c-0.1-0.2-0.3-0.2-0.5-0.2c-0.1,0-0.2,0-0.3,0c-0.1-0.1-0.1-0.2-0.2-0.4c-0.1-0.3-0.5-0.6-0.8-0.9c-0.2-0.2-0.4-0.4-0.5-0.5
					c-0.1-0.2-0.2-0.4-0.2-0.6c0-0.1-0.1-0.2-0.1-0.3c0,0-0.1-0.1-0.2-0.3c-0.1-0.1-0.2-0.3-0.2-0.3c-0.2-0.3-1.3-0.5-1.3-0.5
					c-0.1,0-0.4-0.2-0.6-0.3c-0.2-0.1-0.4-0.2-0.6-0.2c-0.2-0.1-1.2-0.2-1.9-0.2c-0.8,0-1.1,0.1-1.2,0.2c0,0-0.2,0.1-0.7,0.1
					c-0.5,0-1-0.1-1.3-0.1c-0.1,0-0.2,0-0.2,0c0-0.1-0.1-0.2-0.1-0.3c0-0.1,0-0.2-0.1-0.4c-0.1-0.3,0.3-1.3,0.8-1.7
					c0.2-0.2,0.6-0.8,0.3-1.6l0,0C542,2414,541.9,2413.9,541.7,2413.8C541.7,2413.8,541.7,2413.8,541.7,2413.8L541.7,2413.8z"/>
				<g>
					<path fill="#279989" d="M539.3,2413.7c-0.5,0.2-0.6,0.2-0.9,0c-0.3-0.2-0.7-1.8-0.8-2.2c0-0.4-0.2-1-0.2-1.1
						c0-0.2,0.5-1.8,0.8-2.4c0.3-0.5,1.3-1.9,1.8-2.3c0.5-0.4,1.5-0.9,1.9-1c0.4-0.1,1.5-0.2,2.1-0.2c0.6,0,1.5-0.1,1.9,0
						c0.3,0.1,0.4-0.1,0.5,0.2c0.1,0.2,0.2,0.7,0.2,0.9c0,0.2,0.1,0.9,0,1c-0.1,0.1-0.3,0.5-0.5,0.3c-0.2-0.1-0.1-0.2-0.3-0.4
						c-0.2-0.2-0.4-0.2-0.5-0.2c-0.1-0.1-0.4-0.2-0.6-0.2s-0.6,0.1-0.8,0.1c-0.2,0-0.8-0.1-1.1,0.2c-0.4,0.3-1.3,1.7-1.5,2.3
						c-0.2,0.5-1,2.2-1.2,2.7c-0.2,0.5-0.2,1.3-0.2,1.5C539.8,2413.2,539.4,2413.6,539.3,2413.7z"/>
					<path fill="#279989" d="M536.4,2415.1c-0.3-0.1-0.5,0.2-0.4,0.3c0.1,0.1,0.5,0.7,0.6,0.9c0.1,0.3,0.1,0.8,0.2,1.1
						c0.2,0.3,0.7,0.2,0.9,0.2c0.3,0,0.6,0,0.8,0c0.2,0,0.2,0.1,0.3,0.1c0.1,0,0.3,0.2,0.3,0c0.1-0.2,0-0.5,0.1-0.8
						c0.1-0.3-0.1-0.9-0.2-1c-0.2-0.1-0.7-0.5-1-0.4c-0.3,0.1-0.5,0.3-0.8,0.2c-0.3-0.1-0.5-0.1-0.6-0.2
						C536.7,2415.4,536.4,2415.1,536.4,2415.1z"/>
					<path fill="#279989" d="M536.1,2418.6c-0.7,0.2-1.2,0.6-1.3,0.7c-0.2,0.1-0.7,0.7-0.9,1.1c-0.2,0.3-0.5,0.9-0.8,1.1
						c-0.3,0.2-0.5,0.4-0.5,0.6c0,0.2,0.1,0.9,0,1.2c-0.1,0.2,0,0.3,0.2,0.5c0.2,0.2,0.3-0.1,0.5-0.2c0.1-0.1,0.4-0.4,0.7-0.4
						c0.3,0,0.5,0.2,0.6,0.4c0.2,0.2,0.5,0.4,0.7,0.3c0.1-0.1,0.3-0.3,0.4-0.5c0.1-0.1,0.1-0.4,0.3-0.5c0.2-0.1,0.2-0.9,0.4-1.3
						c0.2-0.4,0.3-1.1,0.5-1.3c0.2-0.2,0.8-0.6,0.9-0.8c0.2-0.2-0.1-0.6-0.5-0.6C536.9,2418.6,536.1,2418.6,536.1,2418.6z"/>
					<path fill="#279989" d="M549,2420.4c-0.3,0-0.7,0.3-0.8,0.4c-0.1,0.1,0,0.9,0.2,1.3c0.3,0.4,0.8,1.5,0.9,1.9
						c0.1,0.4,0.1,0.9,0,1.3c-0.1,0.4,0.1,0.7,0.1,1.1c0,0.3,0,1,0,1.3c-0.1,0.3,0,0.6,0.5,0.8c0.5,0.1,1.2-0.2,1.6-0.5
						c0.3-0.3,0.4-0.7,0.7-1.1c0.3-0.4,0.4-0.6,0.7-0.9c0.3-0.3,0.2-0.7,0-0.9c-0.1-0.2-0.5-0.4-0.8-0.8c-0.2-0.3-0.4-0.6-0.5-0.6
						c-0.2,0-0.6,0-1-0.2c-0.3-0.2-0.4-0.2-0.7-0.5c-0.2-0.3-0.3-0.6-0.6-1.3c-0.3-0.7-0.3-0.6-0.3-0.8
						C549,2420.7,549,2420.4,549,2420.4z"/>
					<path fill="#279989" d="M554,2425.8c-0.3-0.1-0.4-0.2-0.5,0c-0.1,0.2-0.2,0.6,0,0.7c0.3,0.1,0.8,0.3,1,0.3c0.3,0,0.7,0.2,0.9,0
						c0.2-0.2,0.3-0.2,0.4-0.3c0-0.1-0.1-0.6-0.3-0.7c-0.2-0.1-0.6-0.1-0.9,0C554.2,2425.8,554,2425.8,554,2425.8z"/>
					<path fill="#279989" d="M560.8,2415.9c-0.3,0-0.2,0-0.4,0c-0.2,0-0.5-0.1-0.6-0.1c-0.1,0-0.3,0-0.2,0.1
						c0.1,0.1,0.6,0.2,0.8,0.3c0.2,0.1,0.3,0.2,0.7,0.4c0.4,0.1,0.3,0.3,0.4,0.1C561.5,2416.5,561.2,2415.9,560.8,2415.9z"/>
					<path fill="#279989" d="M557.7,2409.8c0.2,0,0.1,0.1,0,0.2c-0.1,0.1-0.2,0.3,0,0.3c0.2,0,0.4-0.3,0.3-0.9
						c-0.1-0.5-0.4-1.1-1.1-1.3c-0.7-0.3-1.6-0.4-2.1-0.4c-0.5,0-0.7-0.1-0.9,0c-0.2,0.1-0.6,0.2-0.7,0.2c-0.1,0-0.1-0.3,0-0.8
						c0.1-0.5,0.2-0.7,0.2-0.8c0-0.1,0.2-0.3,0.4-0.3c0.2,0,3.1,0.6,3.6,0.8c0.5,0.2,2,0.9,2.3,1.1c0.3,0.1,0.7,1.1,0.7,1.3
						c0.1,0.2-0.3,1.2-0.5,1.5c-0.2,0.3-0.3,0.6-0.6,0.6c-0.3,0-0.5-0.2-0.9-0.2c-0.4,0-1.1,0-1.2-0.1c-0.1-0.1-0.2-0.5-0.1-0.9
						C557.3,2409.9,557.5,2409.9,557.7,2409.8z"/>
					<path fill="#279989" d="M552.6,2407.7c-0.4,0-0.4-0.2-0.5-0.3c0-0.1-0.2-0.3-0.4-0.3c-0.2-0.1-0.5-0.4-0.6-0.4
						c-0.1,0-0.5-0.2-0.9,0c-0.3,0.2-0.5,0.5-0.7,0.3c-0.2-0.2-0.2-0.5-0.2-0.6c0-0.1,0.5-0.8,0.6-1c0.1-0.2,0.3-0.4,0.4-0.4
						c0.1,0,0.9,0.2,1,0.2c0.1,0,0.8,0.2,1,0.3c0.2,0.1,0.5,0.2,0.6,0.3c0.1,0.1,0.4,0.1,0.4,0.1s-0.5,1.5-0.5,1.7
						C552.8,2407.6,552.6,2407.7,552.6,2407.7z"/>
					<path fill="#279989" d="M548.1,2404.8c-0.1,0.1-0.2,0.5-0.2,0.6c0,0.1-0.1,0.6,0,0.9c0.1,0.3,0.5,0.7,0.6,0.2
						c0.1-0.5,0.1-0.9,0-1c-0.1-0.1-0.3,0.1-0.3-0.2C548.3,2405,548.1,2404.8,548.1,2404.8z"/>
					<path fill="#279989" d="M547,2404.4c-0.3,0-0.3-0.1-0.4,0.1c0,0.2,0.1,1.1,0.2,1.3c0.1,0.2-0.2,0.9,0,1
						c0.2,0.1,0.5-0.2,0.6-0.5c0.1-0.3,0.2-0.5,0-1C547.2,2404.8,547,2404.4,547,2404.4z"/>
					<path fill="#279989" d="M556.2,2431.7c-0.1-0.1-0.2,0.4,0,0.5C556.3,2432.4,556.5,2431.9,556.2,2431.7z"/>
					<path fill="#279989" d="M556.2,2432.8c-0.3-0.1-0.3,0.6-0.5,0.7c-0.2,0.1-0.5,0.5-0.4,0.9c0.1,0.3-0.1,0.8-0.1,1
						c0,0.1,0.2,0.7,0.6,0.8c0.4,0.1,1-0.2,1.1-0.7c0.1-0.4-0.1-0.9,0-1c0.1-0.1-0.1-0.5-0.1-0.6c0-0.1-0.2-0.1-0.4-0.6
						C556.2,2432.8,556.5,2432.9,556.2,2432.8z"/>
				</g>
			</g>
			<g id="tahiti_6_">
				<polygon fill="#279989" points="642.6,2610.4 642.4,2609.9 642.2,2609.6 641.9,2609.7 642.1,2610.6 642,2611.8 642.1,2612 
					642.1,2612.5 642.4,2613.2 642.3,2613.9 642,2614.1 642.3,2614.2 642.7,2613.9 642.8,2613 642.4,2611.6 				"/>
				<polygon fill="#279989" points="641,2609.9 641.5,2609.5 641.4,2608.8 641.6,2608.3 641.9,2608 641.9,2607.6 641.7,2607.5 
					641.4,2607.7 641.2,2607.4 641.2,2606.9 640.8,2605.7 641.2,2605.2 641.5,2605 641.5,2604.8 642,2604.1 641.5,2603.6 
					641.4,2603.2 642.1,2602.2 641.8,2601.5 641.9,2599.7 642.4,2598.7 642.6,2597.1 642,2596.5 641.6,2596.5 641.6,2596 
					641.2,2595.7 641.3,2595.3 640.7,2594.8 640.8,2594.3 640.3,2593.6 640.3,2593.4 638.8,2592.3 638.3,2591.8 638.4,2591.3 
					638,2590.7 637.2,2590.3 636.8,2590.2 636.4,2589.7 636.3,2588.8 636.6,2588.5 636.6,2587.8 636.2,2587.2 635.4,2587.2 
					635.1,2587.6 635.2,2588.3 634.7,2589 633.9,2589.6 631.8,2589.6 631.7,2589.3 631.3,2589.3 631,2589.6 630.7,2589.3 
					630.5,2589.1 629.3,2589.1 629.1,2588.9 628.5,2588.9 628.3,2588.6 627.6,2588.4 627.2,2587.9 626.6,2587.9 626.2,2587.7 
					626,2586.5 624.9,2587.2 623.3,2587.2 622.2,2586.5 621.9,2586 622,2585.5 622.2,2585.3 621.9,2585.1 621.7,2585.4 
					621.3,2585.1 620.9,2585.6 620.4,2584.7 619.6,2584.2 619,2584.2 618.8,2584.4 618.2,2584.2 618,2584.4 617.2,2584.4 
					616.5,2584.9 616,2584.6 616,2584.2 615.6,2584.4 614.7,2584.9 614.3,2584.9 613.6,2585.4 612.2,2585.4 612,2585.1 
					610.2,2585.1 610,2584.9 609.2,2584.9 609,2584.7 607.5,2583.7 606.5,2582.6 605.9,2582.6 605.2,2583 604.4,2583 603.3,2582.3 
					603.1,2582.4 602.8,2582 602.9,2581.5 602.4,2581.1 602.4,2580.2 601.9,2580.5 601.8,2580.4 602,2579 602.3,2578.7 
					602.6,2578.3 602.7,2577.3 602.9,2577.1 603,2576.2 603.3,2576 603.2,2575 603,2574.8 603.2,2573.4 603.1,2573.2 603.3,2572.7 
					603.6,2571.1 603.4,2570.8 603.5,2570.1 603.7,2569.9 603.9,2568.5 603.5,2567.6 603.6,2566.4 603.4,2566.2 603.5,2565.9 
					602.8,2564.8 603,2563.8 603.2,2563.6 603.3,2562.9 603.1,2562.7 603.4,2562.4 602.8,2562 603,2561.1 603.6,2560.6 
					603.5,2560.1 604,2559.7 604.1,2558.5 603.8,2558 604.1,2557.9 604.4,2557.4 604.8,2557.4 605.6,2556.4 605.8,2555.7 
					606,2555.5 606.1,2554.5 606,2554.1 606.7,2553.1 606.8,2552.4 606.7,2552 607.2,2551.5 607.2,2550.8 607.5,2550.6 
					607.9,2549.4 607.4,2548.5 607.5,2547.6 607.2,2546.6 606.7,2546.2 606.8,2545.7 607,2545.2 606.4,2543.8 607.1,2543.4 
					606.2,2542.7 606.7,2542 606.6,2541 606,2539.9 606,2539.6 605.4,2538.8 604.6,2538.6 603.7,2537.7 603.5,2537.9 603.3,2537.5 
					603.3,2536.9 602.7,2535.5 602.8,2535 602.3,2534.3 602.3,2533.5 601.7,2533.2 601.4,2532.8 601,2532.8 600.9,2532.4 
					600.2,2531.4 599.2,2530.9 598.8,2530.9 598.6,2530.7 598,2530.7 597.9,2530.4 597.1,2530.4 596.9,2530.2 595.7,2530.2 
					595.4,2530.4 594.8,2530.4 594.6,2530.2 594.3,2530.2 593.9,2529.7 593.5,2530 592.1,2529.7 591.3,2529.3 590.9,2528.7 
					590.9,2528.5 590.2,2527.4 590,2527.4 589.9,2527.1 589.2,2526 588.7,2526.3 588.7,2525.7 587.4,2524.2 586.2,2523.9 
					585.9,2523.2 585.5,2523.5 584.2,2523.5 583.5,2523 582.7,2521.8 582.3,2521.8 582,2522.1 581.8,2521.8 581.4,2521.8 
					580.5,2520.9 579.7,2521.4 577.5,2521.1 577.3,2520.9 574.1,2520.9 573.5,2520.4 572.5,2520.7 572.2,2520.9 571.9,2520.7 
					570.4,2520.7 570.3,2520.4 569.3,2520.2 569,2519.7 568.8,2519.7 568.3,2519.2 568.6,2518.9 568.5,2518.3 568.1,2518.3 
					567.5,2518.8 566.9,2518.8 566.3,2518 566.6,2517.1 566.5,2516.9 566.1,2517.2 565.7,2516.7 565.3,2516.7 565.1,2516.9 
					564.7,2516.7 564.4,2516.8 564.8,2518.7 563.9,2520.3 563.3,2521.1 562.9,2521.1 562,2521.8 560.8,2521.9 561.1,2522.5 
					561.3,2522.6 561,2523.3 560.7,2523.7 560.1,2523.7 559.7,2524 559.9,2524.3 559.3,2525.1 558.8,2525.3 558.1,2525.1 
					557.6,2525.6 557,2525.6 556.6,2525.3 556.1,2524.4 555.1,2525.2 555,2525.6 554.5,2525.8 553.5,2526 553.1,2525.8 
					552.6,2524.9 552.3,2524.6 551.7,2525 551.7,2525.2 550.8,2526 550,2526 549.7,2525.8 549.4,2526 549,2526 548.9,2525.8 
					547.4,2526 546.7,2526.7 545.9,2526.5 545.6,2526.8 545.4,2527.4 544.2,2527.8 544.4,2528.4 544.9,2528.1 545.2,2528.2 
					544.9,2528.7 545.1,2528.9 544.9,2529.9 544.6,2530.2 544,2530.2 543.2,2531.1 543,2531.1 542.8,2531.4 541.5,2531.6 
					540.9,2532.1 539.7,2532.1 538.9,2531.6 538.2,2532.5 538,2532.3 537.7,2532.4 537.6,2533.1 537.2,2533.5 537,2533.2 
					536.4,2533.7 536.2,2533.5 535.7,2533.6 535.3,2534.4 535.1,2534.2 534.8,2534.3 534.9,2534.7 534.8,2535.4 534,2536.3 
					533.6,2536.5 532.9,2536.5 532.4,2535.8 532.3,2535.9 532.2,2536.8 532.3,2537.1 532.3,2538.9 532,2539.1 531.9,2538.9 
					532.2,2538.5 531.7,2538.4 531.3,2538.7 531.2,2539.2 530.8,2539.6 531,2540 531.7,2539.7 531.9,2540.1 532.1,2540.6 
					531.9,2542 532.2,2542.7 532.1,2543.4 532.2,2543.6 532.1,2545 532.2,2545.2 532.1,2546.4 531.6,2547.1 531.3,2547.5 
					531.1,2548.9 530.9,2549.2 530.9,2550.1 530.2,2550.8 530.2,2551.3 530.6,2552.4 530.5,2553.4 530.8,2554.1 530.7,2554.5 
					530,2555.2 529.7,2555.9 530.6,2556.9 531,2558.3 531.8,2559.4 532.1,2560.6 532,2561.3 532.5,2561.7 532.5,2562.2 533,2562.7 
					532.8,2562.9 532.7,2563.4 532.9,2563.6 532.7,2564.5 533,2565.5 532.9,2566.4 533.4,2567.1 533.3,2567.6 533.7,2568 
					533.7,2569.2 534,2569.9 533.9,2570.6 534.3,2570.8 534.2,2571.3 534.5,2572 534.4,2572.7 534.6,2572.9 534.6,2574.5 
					534.7,2574.8 534.5,2576.4 534.3,2576.6 534.1,2578 534.3,2578.3 534.2,2578.7 534.5,2579.2 534.4,2579.9 534.6,2580.4 
					534.7,2580.6 534.5,2583.6 534.6,2584.1 535,2584.3 535.1,2584.8 534.7,2586.2 535,2586.5 535.4,2586.8 535.8,2586.8 
					536,2586.5 536.7,2587.2 537.1,2587.2 537.5,2587.7 538.1,2587.7 538.2,2588.2 539.4,2588.6 540,2589.6 540.7,2589.6 
					541.5,2589.1 542.5,2589.1 543.1,2589.8 543.5,2589.8 543.7,2589.6 546.3,2589.8 546.5,2589.6 547.1,2589.6 547.5,2590 
					548.7,2590.2 548.7,2590.4 548,2591.1 548,2591.3 548.3,2591.6 548.7,2591.7 548.8,2591.9 549.5,2591.9 549.6,2592.1 
					553.1,2592.1 553.2,2592.3 553.8,2592.4 554.6,2592.8 555.1,2593.5 555.5,2593.5 555.7,2593.7 556.9,2593.7 557.1,2593.5 
					557.6,2594.7 558,2594.5 558.1,2594.6 557.6,2595.3 557.5,2596 557.7,2596.3 558.4,2596.1 558.7,2596.5 559.1,2596.5 
					559.8,2596.1 560.6,2595.8 561.5,2596.8 561.7,2596.5 561.9,2596.8 562.4,2596.5 562.5,2596.8 563,2596.5 563.1,2596.8 
					563.5,2596.8 564,2596.3 564.4,2596.3 564.8,2596 564.8,2595.7 565.2,2595.4 566,2595.1 566.5,2594.7 566.8,2594.9 568,2594.2 
					568.3,2594.3 567.8,2594.8 567.9,2594.9 568.9,2594.9 569.1,2594.7 569.7,2594.7 569.9,2594.9 570.5,2594.9 570.7,2594.7 
					571.1,2594.9 571.9,2594.7 572.1,2594.9 572.5,2594.9 572.9,2595.4 573.3,2595.4 573.5,2595.1 574.3,2594.9 575.7,2593.7 
					576.3,2593.7 577,2594.4 577.7,2594 578.1,2594 578.4,2593.5 578.7,2593.4 578.7,2592.2 579.3,2591.7 580.1,2591.7 
					580.3,2591.4 581.7,2591.4 582.3,2591.9 582.7,2591.4 583.2,2591.4 583.4,2591.2 584.2,2591.2 584.4,2591 584.7,2591.3 
					584.4,2591.8 584.5,2591.9 585.1,2591.9 585.3,2591.6 586.6,2591.7 586.8,2591.4 587.6,2591.2 588.4,2590.5 589.4,2590.5 
					589.8,2590 590.2,2590 590.4,2590.2 591.5,2590 593,2588.7 593.2,2588.3 593.3,2587.6 593.6,2587.3 593.6,2586.9 593.3,2586.4 
					593.5,2586.2 593.3,2585.8 592.6,2586.1 592.2,2585.5 592.6,2585.1 593.2,2585.1 593.5,2585.6 594.3,2585.6 594.5,2585.3 
					594,2584.7 593.6,2584.5 594.5,2584 594.8,2584.7 595.1,2584.7 595.4,2584.3 595.3,2583.9 595.9,2582.8 596.5,2582.8 
					597,2582.6 597.5,2583 598,2583.2 597.1,2583.3 596.5,2583.9 596.5,2584.1 598.2,2584.5 597.8,2584.8 597.6,2585.1 
					597.2,2585.1 597,2585.4 596.2,2585.4 595.5,2585.8 595.4,2586.2 595.1,2586.4 595.4,2586.8 595.9,2586.9 595.5,2587.5 
					595.1,2587 594.2,2587.1 595,2588.2 595.3,2588.4 596.2,2588.2 596.2,2587.6 596.5,2587.2 597.7,2587.2 598.2,2587.6 
					597.9,2588 598.1,2588.3 598,2588.4 597,2587.9 596.4,2588.5 596.4,2588.7 596.9,2589.2 597,2589.6 597.9,2589.9 597.5,2590.5 
					597.3,2590.3 597,2590.4 596.9,2591.1 597.6,2591.8 597.8,2592.3 598.4,2592.6 599,2593.4 599.1,2594.1 599.4,2594.6 
					599.3,2595.3 599.1,2595.7 598.4,2596.2 599.3,2596.9 599,2597.6 599.4,2598.2 600,2598.4 600.8,2599.4 601,2600.4 
					600.8,2601.8 600.6,2602 601.1,2602.9 600.8,2603.6 601.2,2604 601.5,2603.5 601.7,2603.9 601.7,2604.3 601.4,2604.6 
					601.6,2605 601.4,2605.3 601.3,2605.7 600.4,2606.4 600.3,2607.1 600,2607.4 600.1,2608.3 600.5,2609.1 601.3,2609.3 
					601.4,2609.6 602,2609.6 602.8,2610.9 602.7,2611.3 603.2,2611.8 603.5,2612.7 604.2,2613.1 604.9,2614.1 605.1,2614.6 
					605,2615.3 605.5,2616.3 607.2,2616.1 607.8,2616.7 607.8,2616.9 608.3,2618 609.5,2618.2 609.8,2618.5 609.7,2619 
					610.5,2619.8 610.9,2619.8 611.2,2619.6 611.3,2619.8 612.1,2619.8 613.2,2619.3 613.7,2620 614.1,2620.1 614.7,2620.5 
					615.3,2620.5 615.4,2621 616.7,2620.7 617.1,2620.3 617.5,2620.3 617.9,2620.7 618.3,2620.8 618.8,2621.2 619.8,2621.2 
					620,2621.4 620.4,2621.4 620.6,2621.7 621.4,2621.9 621.4,2622.2 622.2,2623.3 622.8,2623.1 623.1,2622.8 623.7,2622.8 
					624.6,2624.5 625,2624.7 625.6,2624.7 626,2624.3 626,2623.9 626.4,2623.8 626.7,2624.2 628.1,2624.5 628.8,2624.9 
					630.9,2624.7 631.1,2624.5 631.7,2624.5 632,2624.2 632.4,2624.2 633.4,2623.1 634.6,2622.8 635.7,2621.8 635.8,2621.4 
					636.3,2621.3 636.2,2620.6 636.6,2620.1 637.1,2619.9 637,2619.5 637.2,2619.2 637.8,2618.1 638.5,2617.1 638.7,2616.2 
					639,2615.7 638.6,2615.3 639.7,2614.6 639.8,2613.9 639.5,2613.4 639.6,2612.9 640.2,2612.5 640.1,2612 640.2,2611.5 
					640.8,2611.1 641.1,2610.6 640.9,2610.4 				"/>
				<polygon fill="#279989" points="644.9,2599.5 644.8,2599.2 645,2597.6 644.7,2596.9 644.8,2596.4 644.3,2595.8 643.9,2595.8 
					643.6,2596.2 643.5,2596.9 643.6,2597 644.1,2596.3 644.3,2596.6 644.6,2597.8 644.4,2599.2 644.5,2599.5 644.4,2601.5 
					643.9,2602.5 643.2,2605.7 643.4,2606 643.2,2606.2 642.8,2608.5 642.7,2608.6 642.5,2608.3 642.6,2607.7 642.3,2607.8 
					642.2,2608.5 642.5,2608.9 642.9,2608.9 643.1,2608.3 643.3,2608.1 643.5,2606.9 643.7,2606.7 643.6,2606.2 644.3,2602.5 
					644.5,2602.2 645,2600.4 644.8,2600.1 				"/>
				<polygon fill="#279989" points="605.8,2566.9 605.9,2565.9 606.2,2565.7 606.4,2564.3 605.9,2563.7 605.6,2564.1 605.9,2564.3 
					605.6,2566.6 605.1,2567.1 605.4,2567.2 				"/>
				<polygon fill="#279989" points="533.5,2535.3 533.9,2535 534.1,2534.4 534.4,2534.6 534.6,2534.3 534.3,2533.9 533.7,2533.9 
					533.1,2534.5 533.1,2535 533.3,2535.3 				"/>
				<polygon fill="#279989" points="608.1,2553.6 607.8,2553.8 607.7,2554.5 607.5,2554.8 607.1,2556.2 606.6,2556.6 606.3,2557.6 
					605.5,2558.4 605.3,2558.1 605.1,2558.5 605.6,2558.6 606.5,2557.8 607.5,2555.9 607.6,2555.2 607.9,2555 608.4,2553.1 
					608.6,2552.9 609,2550.1 608.8,2549.9 608.9,2549.2 608.6,2548.8 608.1,2549 608.5,2549.2 608.4,2549.9 608.6,2551 
					608.4,2551.3 608.4,2552.4 608.2,2552.7 				"/>
				<polygon fill="#279989" points="640,2590.7 640.7,2591.2 642.7,2593.9 642.7,2594.1 643.3,2595 643.1,2595.8 643.7,2595.5 
					643.7,2595 643.6,2594.6 642.2,2592.7 642.3,2592.5 641.5,2591.4 640.4,2590.5 639.8,2590.5 639.7,2590.8 639.8,2591 				"/>
				<polygon fill="#279989" points="604.9,2570.9 604.8,2571.1 605.2,2571.3 604.8,2572.7 604.9,2572.9 604.8,2573.9 604.9,2574.3 
					604.7,2574.5 604.4,2576.4 604.2,2576.6 604.8,2576.6 605.4,2572.7 605.2,2572.5 605.4,2571 				"/>
				<polygon fill="#279989" points="618.1,2582.6 618.7,2582.6 619.1,2582.9 619.2,2583.3 619.5,2583.2 619.1,2582.3 617.9,2582.3 
					617.7,2582.9 617.9,2582.9 				"/>
				<polygon fill="#279989" points="634.9,2587.1 635.3,2586.8 636.1,2586.5 637.4,2587.5 637.6,2587.9 637.8,2587.9 638.2,2588.9 
					638.4,2588.9 638.9,2589.8 639.4,2589.7 637.5,2587 636.7,2586.5 636.4,2586.3 635.6,2586.3 635.1,2586.5 634.5,2587.1 
					634.4,2587.8 634.6,2587.8 				"/>
				<polygon fill="#279989" points="625.7,2585.2 625.5,2585 626,2584.9 626.7,2585.6 627.5,2585.8 628.1,2586.3 628.5,2586.3 
					629,2586.8 630,2587 631.1,2587.7 631.7,2587.7 632.2,2588 632.2,2588.4 632.4,2588.4 632.6,2588 632.1,2587.5 630.6,2587 
					630.1,2586.5 629.6,2586.5 628.5,2585.8 627.5,2585.6 626.7,2584.9 626.4,2584.9 626.3,2584.7 625.5,2584.7 625.3,2585.3 
					625.6,2585.4 				"/>
				<polygon fill="#279989" points="621.9,2583.7 622.1,2584 622.7,2584 622.9,2584.2 623.5,2584.8 623.3,2585 623.4,2585.1 
					623.7,2585 623.7,2584.5 623.2,2583.7 622.7,2583.7 622.6,2583.5 620.8,2583.5 620.6,2583.3 620,2583.3 619.9,2583.4 
					620.1,2583.7 				"/>
			</g>
			<path id="maupiti_6_" fill="#279989" d="M199.4,2362.1c0.9,2.9-1.9,1.1-3.1,1.9c-4.8,3.2,0.4,5.3-1.4,8.5c-0.5,1-1.9,2.1-3.3,1.1
				c-1.7-1.2,0-5.8,0.7-7.2c1.4-2.8,1.9-2.9,5.1-3.8C197.5,2362.6,199.4,2362.1,199.4,2362.1z M200.3,2361.6
				C200.2,2361.6,200,2361.8,200.3,2361.6c0.1,0.3-0.1,1.6,0.4,1.6C202.5,2363.2,200.1,2361.3,200.3,2361.6z M199.5,2362
				C199.5,2362,199.4,2362,199.5,2362C199.6,2362.1,199.6,2362,199.5,2362z M199.6,2362C199.6,2362,199.5,2362,199.6,2362
				C199.7,2362,199.6,2362,199.6,2362z M199.8,2361.9C199.8,2361.9,199.7,2361.9,199.8,2361.9C199.8,2362,199.9,2361.9,199.8,2361.9
				z M199.7,2362.1C199.6,2362.1,199.7,2362.2,199.7,2362.1C199.8,2362.1,199.7,2362.1,199.7,2362.1z M201.1,2361.4 M202.1,2361.2
				c-1,0-0.2,2.3-0.4,2.3c1.8-0.2,2.6,0.9,3.6,1c1.9,0.1,2.6,2.8,2.5,4.1c-0.1,0.1-1.5,2-1.6,2.3c0-0.1,0-0.2-0.1,0
				c0.9,2.2,2.3-2.5,2.3-3.2C208.3,2364.7,205,2361.7,202.1,2361.2z M207.5,2368.3 M206.3,2370.8 M206.3,2370.9
				C206.2,2370.9,206.2,2371,206.3,2370.9C206.4,2371,206.4,2371,206.3,2370.9z M196.7,2371.7c0-2.3,5.8,1,6.5,1.2
				c0.3,0.1,1.6-5.2,0.7-5.6c0,0.1,0,0.1,0.1,0.2c-0.7-0.3-3.3-0.8-3.3-0.9c0,0.1-0.4,0.2-0.4,0.2c-0.5,0.1-2.8,5.1-2.9,3.9
				C197.3,2369.9,196.7,2371,196.7,2371.7z M204,2378c-0.4,0.1-0.4,2.3-0.1,2.3C205,2380.6,204,2378.2,204,2378z M205.1,2375.9
				c0.4,0,0.2,4.2,0.2,4.2C206.9,2380.7,205.5,2376.3,205.1,2375.9z M200,2361.2c-3.4,0.3-6.6,2-8.1,4.4c-2,3.2-2,7.3-0.1,9.2
				c2.1,2,8.6,6.6,11.5,6.6C210.7,2381.4,212,2360,200,2361.2z M195.1,2376.2c-0.6-0.3-4.1-1.4-4.3-1.6c-1.4-1.9,0.5-9.6,2.1-11.2
				c0.6-0.6,7.9-2.7,8.9-2.6c4.9,0.4,7.1,5,6.9,9.3c-0.1,1.2-1,8.4-2,9.7c-1.5,2-2.2,1.2-4.1,1.2
				C199.7,2380.6,197.7,2377.6,195.1,2376.2z"/>
			<path id="tupai_6_" fill="#279989" d="M240.7,2351.7c0.5,1.9-2.9-1.1-3.3-2c-0.8-1.6-0.9-4-0.2-5.6c4.1-9.5,15.4,5.7,16.3,5.2
				c0.5-0.3-6.7-0.4-5.6,0.4c-0.7-0.5,0.8-2.7,0.2-3.7c-0.5-0.7-4.5-3.3-5.8-3.1C238.7,2343.6,237.3,2349.8,240.7,2351.7z
				 M241.6,2352.3c-1.8-0.1-2.2,11.8,2.2,11.8c2.4,0,3.5-10.4,1.4-10.6c0.6,0.1,0.7,7.2-2.6,6.1
				C240.8,2358.9,242.2,2352.3,241.6,2352.3z M246,2351.6c-0.3-0.2-0.5,1.8-0.7,1.6C246,2354,247.3,2352.4,246,2351.6z
				 M246.3,2350.9c-0.9,0.5,0.9,0.7,0.9,0.8C247.3,2351.2,246.5,2351.2,246.3,2350.9z M246.4,2350.6c-0.2,0.3,1.6,0.8,1.6-0.3
				c0-0.1-0.5-0.7-0.7-0.5C247,2350.1,247,2350.4,246.4,2350.6z M239.8,2340.8c-9,0,2.3,42,6.8,15.3c0.3-1.7,0.1-4.7,1.7-6
				c0.8-0.6,3.3,0.4,4-0.2C256.1,2346.8,243.6,2340.8,239.8,2340.8 M241,2351.3c-2.2,0-2.3-4.6-1.5-6c1.9-3.1,1.3-1.3,3.6-1.1
				c4.8,0.4,4.5,2.6,3.3,6c-0.3,0.9-1.8,6.1-2.5,7C240.6,2361.4,243.3,2351.3,241,2351.3 M239.8,2340.5c2.7,0,6.6,1.9,8.8,3.2
				c2.9,1.7,6.6,4,3.7,6.4c-0.5,0.4-2.7-0.4-3.4,0c-2.1,1.3-1.8,3.9-2.1,5.8C242,2383.7,230.2,2340.5,239.8,2340.5L239.8,2340.5z
				 M241,2351c2.9,0,0.1,5.3,1.3,6.6c1,1.1,2.7-5.5,3.3-7.1c1.2-2.9,3.2-5-2.2-6c-2.2-0.4-1.7-1.7-3.4,0.4
				C239.3,2345.9,238.8,2351,241,2351L241,2351z"/>
		</g>
		<g id="tahiti-marker_7_">
			<path fill="#004976" d="M275.3,2341.5c-7.7-7.7-20.3-7.7-28,0c-7,7-7.8,20.1-1.8,28l15.9,22.9l15.9-22.9
				C283.1,2361.6,282.3,2348.5,275.3,2341.5L275.3,2341.5z M261.5,2361.9c-3.6,0-6.5-2.9-6.5-6.5c0-3.6,2.9-6.5,6.5-6.5
				c3.6,0,6.5,2.9,6.5,6.5C268,2358.9,265.1,2361.9,261.5,2361.9L261.5,2361.9z M261.5,2361.9"/>
		</g>
	</g>
</g>
<g id="tuamotu">
</g>
<g id="austral">
	<g id="island-names_2_">
	</g>
</g>
<g id="marquesas">
	<g id="island-names">
	</g>
</g>
<g id="gambier">
	<g id="island-names_1_">
	</g>
</g>
<g id="Labels">
</g>
</svg>
